<?xml version="1.0" standalone="no"?>
<!DOCTYPE svg PUBLIC "-//W3C//DTD SVG 20010904//EN"
 "http://www.w3.org/TR/2001/REC-SVG-20010904/DTD/svg10.dtd">
<svg version="1.0" xmlns="http://www.w3.org/2000/svg"
 width="333.000000pt" height="333.000000pt" viewBox="0 0 333.000000 333.000000"
 preserveAspectRatio="xMidYMid meet">
<metadata>
Created by potrace 1.14, written by Peter Selinger 2001-2017
</metadata>
<g transform="translate(0.000000,333.000000) scale(0.100000,-0.100000)"
fill="#000000" stroke="none">
<path d="M2246 3045 c-123 -44 -193 -188 -152 -312 57 -173 262 -228 403 -109
73 62 99 192 56 287 -53 118 -188 177 -307 134z m73 -27 c11 -11 12 -10 6 0
-5 9 -1 12 11 10 11 -2 22 -12 26 -23 6 -18 6 -18 7 3 1 21 3 22 24 10 22 -12
28 -14 47 -17 6 0 10 -8 10 -17 0 -8 -5 -12 -11 -8 -8 4 -8 0 0 -15 13 -24 17
-25 27 -9 5 7 3 8 -6 3 -8 -5 -11 -3 -9 4 3 7 9 13 14 13 16 2 74 -91 70 -112
-2 -11 0 -22 6 -25 16 -11 -9 -45 -29 -39 -13 5 -14 4 -3 -4 8 -6 20 -8 26 -5
9 3 11 -4 8 -21 -3 -14 -10 -26 -15 -26 -5 0 -6 5 -2 12 4 7 3 8 -5 4 -9 -6
-9 -11 0 -22 9 -11 8 -14 -7 -14 -15 0 -16 -2 -5 -9 10 -7 4 -18 -27 -50 -22
-22 -45 -41 -52 -41 -7 0 -19 -8 -27 -17 -13 -16 -13 -16 -8 7 7 25 7 25 -9 4
-30 -41 -176 -16 -176 30 0 17 -2 18 -9 7 -8 -12 -12 -12 -25 -2 -9 7 -13 17
-10 22 3 5 1 9 -4 9 -26 0 -65 151 -43 165 6 3 8 12 5 20 -9 23 5 38 23 23 12
-10 17 -9 27 2 6 8 20 15 30 15 14 0 20 7 20 27 1 14 -2 24 -7 21 -5 -3 -6
-14 -4 -25 5 -16 2 -19 -14 -15 -11 3 -23 -1 -29 -11 -8 -15 -11 -15 -19 -2
-11 16 -4 33 10 25 5 -3 6 0 4 7 -3 8 5 23 17 35 32 29 84 61 75 46 -11 -18 1
-16 19 2 19 18 26 19 43 3z"/>
<path d="M2270 2990 c-13 -8 -12 -10 3 -10 9 0 17 5 17 10 0 12 -1 12 -20 0z"/>
<path d="M2302 2970 c0 -14 2 -19 5 -12 2 6 2 18 0 25 -3 6 -5 1 -5 -13z"/>
<path d="M2235 2970 c3 -5 8 -10 11 -10 2 0 4 5 4 10 0 6 -5 10 -11 10 -5 0
-7 -4 -4 -10z"/>
<path d="M2340 2969 c0 -5 5 -7 10 -4 6 3 10 8 10 11 0 2 -4 4 -10 4 -5 0 -10
-5 -10 -11z"/>
<path d="M2370 2970 c0 -5 5 -10 10 -10 6 0 10 5 10 10 0 6 -4 10 -10 10 -5 0
-10 -4 -10 -10z"/>
<path d="M2397 2955 c-4 -10 -3 -23 3 -29 8 -8 9 -6 4 8 -5 13 -4 17 4 12 6
-3 14 -1 18 5 4 7 3 9 -4 5 -5 -3 -12 -1 -14 6 -3 7 -7 4 -11 -7z"/>
<path d="M2260 2956 c0 -2 7 -6 15 -10 8 -3 15 -1 15 4 0 6 -7 10 -15 10 -8 0
-15 -2 -15 -4z"/>
<path d="M2259 2921 c10 -18 6 -31 -10 -31 -5 0 -6 8 -3 18 5 14 4 14 -4 2 -6
-8 -8 -18 -6 -22 3 -4 1 -8 -5 -8 -6 0 -7 -7 -4 -17 4 -9 2 -14 -3 -10 -6 3
-16 1 -24 -5 -13 -8 -12 -9 1 -5 12 4 16 -1 15 -24 -1 -19 -6 -29 -17 -29 -10
0 -15 8 -15 21 1 17 -5 22 -26 23 -14 1 -24 -2 -21 -7 3 -5 14 -6 25 -4 15 4
18 1 16 -16 -2 -17 3 -23 20 -25 16 -2 27 -14 34 -33 5 -16 17 -29 25 -29 13
0 14 -2 2 -17 -13 -16 -12 -17 3 -5 15 12 21 10 43 -12 26 -26 26 -26 19 -4
-6 20 -5 21 10 9 9 -7 16 -10 16 -5 0 5 5 2 10 -6 8 -13 10 -12 10 3 0 20 16
23 23 5 2 -7 3 -6 2 3 -1 9 6 24 16 33 18 15 23 13 20 -7 -1 -5 3 -6 9 -2 8 5
7 11 -1 22 -8 9 -9 17 -3 21 14 10 17 68 5 90 -6 11 -6 23 -1 28 6 6 5 15 -1
24 -9 13 -10 12 -5 -2 3 -10 1 -20 -4 -23 -9 -6 -14 8 -11 28 1 5 -3 6 -8 3
-5 -4 -12 -2 -16 4 -3 5 -15 10 -26 10 -11 0 -17 5 -14 10 3 6 1 10 -4 10 -6
0 -11 -4 -11 -8 0 -4 -9 -8 -20 -9 -13 -1 -18 3 -14 10 3 7 -1 4 -9 -5 -17
-22 -27 -23 -27 -3 0 8 -5 15 -10 15 -7 0 -7 -6 -1 -19z m129 -24 c46 -29 52
-122 10 -164 -27 -26 -68 -39 -68 -20 0 7 -4 6 -10 -3 -8 -13 -10 -13 -10 2 0
20 16 32 25 18 3 -5 14 -10 23 -10 13 0 14 2 3 9 -10 6 -5 12 17 22 21 9 27
16 19 21 -9 6 -9 8 0 8 7 0 10 7 6 17 -4 11 -3 14 5 9 7 -4 12 -3 12 2 0 6 -8
13 -17 16 -15 6 -15 8 -3 16 11 7 12 10 2 10 -7 0 -10 4 -7 10 3 6 -1 7 -9 4
-9 -3 -16 -2 -16 4 0 16 -39 21 -74 9 -27 -10 -33 -17 -32 -39 1 -22 -1 -25
-13 -15 -12 10 -13 9 -2 -10 10 -19 9 -22 -4 -17 -8 4 -15 13 -15 21 0 33 45
87 62 77 5 -3 8 -1 8 4 0 11 70 10 88 -1z m-124 -123 c18 -17 21 -28 6 -19 -5
3 -10 1 -10 -6 0 -7 10 -9 25 -7 28 6 27 6 19 -15 -4 -12 -10 -12 -29 -3 -13
6 -26 18 -29 26 -4 8 -9 21 -12 28 -8 17 12 15 30 -4z"/>
<path d="M2360 2890 c8 -5 20 -10 25 -10 6 0 3 5 -5 10 -8 5 -19 10 -25 10 -5
0 -3 -5 5 -10z"/>
<path d="M2426 2932 c-3 -5 1 -9 9 -9 8 0 12 4 9 9 -3 4 -7 8 -9 8 -2 0 -6 -4
-9 -8z"/>
<path d="M2495 2920 c6 -10 3 -12 -13 -8 -12 4 -25 1 -29 -5 -3 -7 -3 -9 2 -5
4 4 13 2 19 -5 6 -7 10 -10 9 -8 -2 2 5 9 14 16 13 9 13 14 3 20 -9 6 -11 4
-5 -5z"/>
<path d="M2140 2860 c6 -11 13 -20 16 -20 2 0 0 9 -6 20 -6 11 -13 20 -16 20
-2 0 0 -9 6 -20z"/>
<path d="M2190 2869 c0 -5 5 -7 10 -4 6 3 10 8 10 11 0 2 -4 4 -10 4 -5 0 -10
-5 -10 -11z"/>
<path d="M2457 2873 c-12 -11 -8 -22 13 -33 16 -9 18 -8 14 5 -3 8 -11 12 -17
8 -6 -4 -8 0 -4 10 7 18 5 21 -6 10z"/>
<path d="M2496 2872 c-2 -4 2 -16 10 -27 8 -10 14 -14 14 -8 0 7 -5 15 -12 19
-8 5 -6 10 8 15 16 6 16 8 2 8 -9 1 -19 -2 -22 -7z"/>
<path d="M2128 2793 c6 -2 9 -10 6 -15 -4 -7 -2 -8 5 -4 13 9 5 26 -12 25 -9
0 -8 -2 1 -6z"/>
<path d="M2470 2790 c-9 -6 -10 -10 -3 -10 6 0 15 5 18 10 8 12 4 12 -15 0z"/>
<path d="M2155 2770 c-3 -5 -3 -10 2 -10 4 0 1 -5 -7 -11 -12 -8 -10 -9 9 -4
17 5 22 4 16 -5 -6 -9 -4 -11 5 -5 10 6 10 11 -3 20 -9 7 -14 15 -10 18 3 4 4
7 0 7 -3 0 -9 -4 -12 -10z"/>
<path d="M2490 2770 c0 -5 5 -10 10 -10 6 0 10 5 10 10 0 6 -4 10 -10 10 -5 0
-10 -4 -10 -10z"/>
<path d="M2197 2759 c7 -7 15 -10 18 -7 3 3 -2 9 -12 12 -14 6 -15 5 -6 -5z"/>
<path d="M2455 2751 c-3 -5 0 -13 6 -17 8 -5 9 -3 4 6 -6 9 -1 10 16 5 19 -5
21 -4 9 4 -19 13 -27 14 -35 2z"/>
<path d="M2200 2730 c-8 -5 -10 -10 -5 -10 6 0 17 5 25 10 8 5 11 10 5 10 -5
0 -17 -5 -25 -10z"/>
<path d="M2140 2716 c0 -2 7 -6 15 -10 8 -3 15 -1 15 4 0 6 -7 10 -15 10 -8 0
-15 -2 -15 -4z"/>
<path d="M2215 2710 c-8 -13 3 -30 18 -29 9 0 9 2 0 6 -7 2 -13 9 -13 14 0 6
5 7 12 3 7 -4 8 -3 4 4 -9 15 -13 15 -21 2z"/>
<path d="M2455 2710 c-8 -13 3 -30 18 -29 9 0 9 2 0 6 -7 2 -13 9 -13 14 0 6
5 7 12 3 7 -4 8 -3 4 4 -9 15 -13 15 -21 2z"/>
<path d="M2181 2694 c0 -11 3 -14 6 -6 3 7 2 16 -1 19 -3 4 -6 -2 -5 -13z"/>
<path d="M2270 2681 c0 -7 -5 -9 -12 -5 -7 5 -8 3 -3 -5 5 -9 10 -10 18 -2 6
6 8 14 4 18 -4 3 -7 1 -7 -6z"/>
<path d="M2293 2673 c4 -3 -1 -12 -11 -20 -15 -13 -15 -13 6 -3 19 9 23 30 5
30 -4 0 -3 -3 0 -7z"/>
<path d="M2430 2670 c0 -5 5 -10 10 -10 6 0 10 5 10 10 0 6 -4 10 -10 10 -5 0
-10 -4 -10 -10z"/>
<path d="M2175 2660 c3 -5 8 -10 11 -10 2 0 4 5 4 10 0 6 -5 10 -11 10 -5 0
-7 -4 -4 -10z"/>
<path d="M2237 2653 c-12 -11 -8 -23 9 -23 9 0 12 -5 8 -12 -5 -7 -3 -8 6 -3
10 6 10 11 -3 20 -9 7 -14 15 -10 18 3 4 4 7 1 7 -2 0 -8 -3 -11 -7z"/>
<path d="M2370 2650 c0 -5 5 -10 10 -10 6 0 10 5 10 10 0 6 -4 10 -10 10 -5 0
-10 -4 -10 -10z"/>
<path d="M2408 2653 c6 -2 9 -10 6 -15 -4 -7 -2 -8 5 -4 13 9 5 26 -12 25 -9
0 -8 -2 1 -6z"/>
<path d="M2316 2637 c3 -10 9 -15 12 -12 3 3 0 11 -7 18 -10 9 -11 8 -5 -6z"/>
<path d="M2297 2620 c3 -11 9 -20 15 -20 5 0 4 9 -2 20 -6 11 -12 20 -14 20
-2 0 -2 -9 1 -20z"/>
<path d="M2943 3030 c-89 -40 -145 -128 -145 -230 -2 -173 185 -301 337 -231
94 43 144 114 153 216 8 105 -56 209 -154 250 -50 21 -140 19 -191 -5z m137
-116 c0 -2 -11 -4 -25 -4 -14 0 -25 4 -25 9 0 4 11 6 25 3 14 -2 25 -6 25 -8z
m-65 -4 c-3 -5 -13 -10 -21 -10 -8 0 -23 -15 -34 -32 -11 -18 -20 -28 -20 -23
0 18 31 56 54 65 28 12 28 12 21 0z m95 -10 c0 -5 -2 -10 -4 -10 -3 0 -8 5
-11 10 -3 6 -1 10 4 10 6 0 11 -4 11 -10z m-30 -25 c0 4 7 -1 16 -9 8 -9 12
-21 8 -27 -5 -8 -3 -9 6 -4 8 5 11 3 8 -6 -11 -32 -78 -8 -71 25 2 11 -3 6
-12 -13 -17 -38 -14 -61 9 -61 10 0 13 -6 9 -17 -6 -15 -5 -16 9 -3 9 8 12 17
7 20 -14 10 5 25 34 27 23 2 27 -1 18 -11 -6 -7 -8 -16 -4 -19 3 -4 -2 -7 -13
-7 -15 0 -16 -2 -5 -9 11 -7 7 -13 -16 -25 -29 -14 -31 -14 -42 7 -7 13 -10
15 -6 4 4 -15 1 -17 -18 -11 -34 11 -65 64 -37 64 6 0 10 5 10 11 0 5 -4 7
-10 4 -12 -7 -13 15 -2 32 15 23 64 42 84 32 10 -5 18 -7 18 -4z m75 -63 c2
-33 -31 -109 -42 -98 -3 3 4 17 15 33 22 31 24 95 4 115 -7 7 -12 17 -12 22 0
27 34 -41 35 -72z m-218 -4 c-3 -8 -6 -5 -6 6 -1 11 2 17 5 13 3 -3 4 -12 1
-19z m7 -33 c3 -8 1 -15 -4 -15 -6 0 -10 7 -10 15 0 8 2 15 4 15 2 0 6 -7 10
-15z m59 -68 c4 3 7 4 7 0 0 -18 -21 -14 -30 5 -10 21 -10 21 3 6 8 -10 17
-15 20 -11z m82 -11 c-11 -8 -24 -12 -29 -8 -5 3 -1 9 10 13 31 12 39 10 19
-5z"/>
<path d="M3076 2847 c3 -10 9 -15 12 -12 3 3 0 11 -7 18 -10 9 -11 8 -5 -6z"/>
<path d="M2991 2843 c-1 -17 16 -25 25 -12 4 7 3 9 -4 5 -5 -3 -13 0 -15 6 -4
9 -6 10 -6 1z"/>
<path d="M3000 2770 c0 -5 5 -10 10 -10 6 0 10 5 10 10 0 6 -4 10 -10 10 -5 0
-10 -4 -10 -10z"/>
<path d="M2152 2435 c-56 -26 -104 -80 -121 -134 -8 -28 -11 -290 -11 -927 0
-841 1 -891 19 -929 25 -57 60 -91 116 -116 40 -18 68 -21 166 -21 131 0 179
14 233 71 64 67 63 38 62 1018 -1 841 -2 890 -19 925 -10 20 -32 51 -49 68
-49 52 -89 64 -225 66 -108 1 -129 -1 -171 -21z m276 -14 c9 -1 11 -9 8 -23
l-6 -23 11 22 c10 18 15 20 35 11 17 -8 23 -17 18 -30 -3 -10 0 -18 6 -18 6 0
8 5 5 10 -12 19 12 10 32 -12 27 -31 45 -66 38 -78 -3 -5 -1 -11 4 -14 11 -7
10 -245 -1 -252 -4 -3 -8 -11 -8 -17 0 -8 3 -8 9 1 4 8 8 -110 8 -263 0 -152
-4 -278 -9 -281 -4 -3 -8 -11 -8 -17 0 -8 3 -7 9 2 5 8 8 -33 8 -103 0 -64 -4
-119 -9 -122 -4 -3 -8 -11 -8 -17 0 -8 3 -8 9 1 4 8 8 -85 8 -207 0 -143 -4
-218 -10 -214 -6 4 -7 1 -1 -8 12 -19 15 -99 4 -99 -5 0 -12 5 -15 10 -3 6
-12 10 -18 10 -7 0 -1 -8 14 -18 20 -13 25 -26 26 -60 1 -30 -2 -40 -10 -35
-9 5 -8 2 0 -8 33 -40 -26 -189 -74 -189 -7 0 -13 -4 -13 -9 0 -15 -60 -32
-60 -18 -1 8 -5 7 -13 -3 -9 -11 -32 -15 -85 -15 -70 0 -95 9 -49 18 l22 4
-23 2 c-12 0 -25 -5 -28 -13 -6 -15 -48 -10 -80 11 -11 7 -24 10 -27 7 -4 -4
-9 1 -13 10 -3 9 -11 16 -18 16 -11 0 -29 23 -54 73 -12 23 -12 30 0 44 7 9 8
14 2 10 -8 -5 -12 18 -13 74 -1 63 1 79 11 74 7 -4 4 0 -6 9 -18 14 -17 15 20
11 25 -3 34 -2 25 4 -8 5 -21 7 -29 3 -10 -3 -13 -1 -8 6 5 8 1 10 -10 5 -13
-5 -15 -3 -8 8 4 8 7 25 5 38 -1 13 1 21 6 18 6 -4 10 0 10 8 0 8 -4 12 -9 9
-13 -8 -9 61 5 75 9 10 9 12 0 7 -9 -5 -12 14 -12 79 0 62 4 84 12 79 7 -3 3
2 -8 11 -19 15 -19 16 4 13 13 -2 25 3 27 10 1 7 0 8 -3 2 -2 -5 -9 -10 -14
-10 -6 0 -7 4 -4 10 4 6 -1 7 -11 3 -13 -5 -15 -3 -9 8 5 7 8 29 6 47 -2 26 1
33 11 27 7 -3 4 1 -6 9 -11 9 -15 16 -9 16 7 0 19 -7 27 -16 9 -8 16 -10 16
-4 0 6 -7 13 -15 16 -8 4 -12 10 -9 15 3 5 -3 6 -12 2 -13 -5 -15 -3 -8 8 4 8
7 25 5 38 -1 13 1 21 6 18 6 -4 10 0 10 8 0 8 -4 12 -9 9 -13 -8 -9 61 5 75
10 11 10 13 0 7 -9 -5 -13 2 -13 26 0 19 6 40 13 47 10 11 10 13 0 7 -9 -5
-13 2 -13 26 0 19 6 40 13 47 10 11 10 13 0 7 -9 -5 -13 2 -13 26 0 19 6 40
13 47 10 10 8 11 -7 5 -15 -6 -17 -4 -11 7 5 7 8 29 6 47 -2 26 1 33 11 27 7
-3 4 1 -7 9 -19 16 -18 16 10 13 17 -3 22 -2 12 0 -9 2 -15 9 -12 14 3 5 -2 6
-11 2 -13 -5 -15 -3 -9 8 5 7 8 29 6 47 -2 26 1 33 11 27 7 -3 4 1 -6 9 -11 9
-15 16 -9 16 7 0 19 -7 27 -16 9 -8 16 -10 16 -4 0 6 -7 13 -15 16 -8 4 -12
10 -9 15 3 5 -3 6 -12 2 -13 -5 -15 -3 -8 8 4 8 7 25 5 38 -1 13 1 21 6 18 6
-4 10 0 10 8 0 8 -4 12 -9 9 -13 -8 -9 61 5 75 10 11 10 13 0 7 -9 -5 -13 2
-13 26 0 19 6 40 13 47 10 11 10 13 0 7 -9 -5 -13 2 -13 26 0 19 6 40 13 47
10 11 9 12 -2 6 -11 -6 -13 1 -9 34 2 24 -1 41 -7 41 -5 0 -1 7 9 15 11 8 15
15 10 15 -6 0 -11 7 -11 15 0 8 4 15 9 15 5 0 7 4 3 9 -9 16 16 60 31 54 10
-3 12 0 8 10 -6 17 34 48 81 64 24 8 171 10 243 4z"/>
<path d="M2210 2410 c0 -5 5 -10 11 -10 5 0 7 5 4 10 -3 6 -8 10 -11 10 -2 0
-4 -4 -4 -10z"/>
<path d="M2247 2409 c7 -7 15 -10 18 -7 3 3 -2 9 -12 12 -14 6 -15 5 -6 -5z"/>
<path d="M2285 2410 c3 -5 8 -10 11 -10 2 0 4 5 4 10 0 6 -5 10 -11 10 -5 0
-7 -4 -4 -10z"/>
<path d="M2351 2410 c-9 -5 -4 -7 13 -7 29 0 32 2 13 10 -8 3 -20 2 -26 -3z"/>
<path d="M2176 2401 c-6 -9 35 -41 51 -41 4 0 -4 8 -20 18 -15 10 -24 22 -20
25 3 4 4 7 0 7 -3 0 -8 -4 -11 -9z"/>
<path d="M2310 2390 c0 -5 5 -10 10 -10 6 0 10 5 10 10 0 6 -4 10 -10 10 -5 0
-10 -4 -10 -10z"/>
<path d="M2220 2386 c0 -2 7 -6 15 -10 8 -3 15 -1 15 4 0 6 -7 10 -15 10 -8 0
-15 -2 -15 -4z"/>
<path d="M2273 2368 c-1 -11 1 -16 5 -12 4 5 11 12 15 15 5 3 2 9 -5 12 -9 3
-14 -3 -15 -15z"/>
<path d="M2360 2381 c0 -7 -4 -10 -9 -6 -15 9 -25 -15 -12 -28 9 -9 10 -7 5 7
-5 13 -4 17 4 12 12 -7 28 12 18 21 -3 4 -6 1 -6 -6z"/>
<path d="M2382 2369 c-10 -16 -10 -20 2 -25 8 -3 20 -2 27 2 9 5 10 1 6 -15
-3 -14 0 -24 9 -28 8 -3 12 -9 9 -13 -3 -5 0 -12 7 -17 7 -4 13 -17 13 -28 0
-16 6 -19 25 -17 20 3 23 1 13 -9 -7 -7 -13 -17 -13 -23 0 -5 6 -1 14 9 18 24
10 38 -16 32 -16 -5 -19 -2 -15 14 3 12 0 22 -9 26 -8 3 -12 9 -9 13 3 5 0 12
-7 17 -7 4 -13 17 -13 28 0 16 -6 19 -25 17 -21 -4 -22 -2 -11 12 8 9 12 18
10 21 -3 2 -10 -5 -17 -16z"/>
<path d="M2452 2370 c0 -14 2 -19 5 -12 2 6 2 18 0 25 -3 6 -5 1 -5 -13z"/>
<path d="M2131 2375 c4 -3 19 -8 35 -11 16 -3 26 -2 23 1 -4 3 -19 8 -35 11
-16 3 -26 2 -23 -1z"/>
<path d="M2125 2349 c-4 -6 -4 -13 -1 -16 3 -4 6 -1 6 6 0 7 5 9 12 5 7 -4 8
-3 4 4 -9 15 -13 15 -21 1z"/>
<path d="M2470 2350 c0 -6 7 -10 15 -10 8 0 15 2 15 4 0 2 -7 6 -15 10 -8 3
-15 1 -15 -4z"/>
<path d="M2519 2358 c-8 -27 -5 -36 9 -30 10 4 12 7 4 10 -7 2 -10 8 -6 13 3
5 3 9 0 9 -3 0 -6 -1 -7 -2z"/>
<path d="M2147 2330 c-15 -14 -16 -20 -5 -26 7 -4 10 -4 6 1 -4 4 0 14 10 21
9 7 15 14 12 17 -3 2 -13 -4 -23 -13z"/>
<path d="M2199 2343 c0 -5 -2 -16 -4 -25 -2 -10 0 -18 5 -18 4 0 8 11 8 25 0
22 -7 36 -9 18z"/>
<path d="M2313 2335 c0 -8 4 -12 9 -9 5 3 6 10 3 15 -9 13 -12 11 -12 -6z"/>
<path d="M2235 2330 c-13 -6 -15 -9 -5 -9 8 0 22 4 30 9 18 12 2 12 -25 0z"/>
<path d="M2344 2325 c-18 -14 -18 -14 4 -8 12 3 22 9 22 14 0 12 -3 11 -26 -6z"/>
<path d="M2450 2330 c0 -5 5 -10 11 -10 5 0 7 5 4 10 -3 6 -8 10 -11 10 -2 0
-4 -4 -4 -10z"/>
<path d="M2096 2313 c-6 -14 -5 -15 5 -6 7 7 10 15 7 18 -3 3 -9 -2 -12 -12z"/>
<path d="M2256 2311 c-3 -4 4 -7 14 -6 27 2 33 10 10 12 -11 1 -22 -2 -24 -6z"/>
<path d="M2553 2301 c0 -11 5 -18 9 -15 4 3 5 11 1 19 -7 21 -12 19 -10 -4z"/>
<path d="M2304 2298 c-3 -5 -12 -7 -19 -4 -13 5 -39 -17 -30 -25 4 -5 -18 -9
-57 -12 -10 -1 -18 -5 -18 -10 0 -5 9 -7 20 -4 11 3 20 2 20 -3 0 -13 -26 -30
-35 -22 -5 4 -5 1 -1 -6 4 -7 11 -10 14 -8 4 2 8 -9 8 -25 1 -18 -3 -29 -11
-29 -8 0 -11 8 -8 19 3 10 1 21 -4 24 -5 3 -8 -7 -7 -21 0 -16 7 -28 17 -30
30 -6 76 -57 66 -73 -12 -19 -11 -29 2 -29 5 0 8 4 5 8 -8 13 11 35 26 29 14
-5 17 -55 3 -76 -3 -6 -3 -11 2 -11 10 0 10 -126 0 -136 -10 -10 -9 -26 1 -20
5 3 9 -1 9 -9 0 -20 -14 -19 -26 3 -8 14 -9 12 -7 -11 1 -15 6 -30 11 -35 4
-4 5 -1 1 6 -4 7 -2 12 6 12 9 0 13 -14 13 -44 0 -24 -3 -42 -7 -39 -5 2 -8
-1 -8 -6 0 -6 4 -11 9 -11 10 0 8 -70 -2 -87 -5 -8 -4 -13 2 -13 6 0 11 -4 11
-9 0 -4 -12 -7 -27 -5 -27 4 -27 3 -3 -4 21 -7 25 -14 25 -44 0 -24 4 -33 10
-27 5 5 18 9 29 9 10 0 16 -3 13 -7 -4 -3 1 -15 10 -26 17 -19 17 -20 1 -14
-10 4 -18 2 -18 -3 0 -11 23 -13 33 -3 4 3 0 15 -10 25 -9 10 -12 18 -6 18 18
0 41 -35 49 -74 5 -28 4 -37 -5 -32 -7 5 -9 1 -5 -8 4 -10 1 -16 -7 -16 -7 0
-9 -3 -6 -7 8 -7 -23 -32 -41 -33 -7 0 -10 5 -6 12 4 7 3 8 -5 4 -6 -4 -9 -12
-6 -17 10 -15 -15 -10 -32 7 -9 8 -24 13 -34 11 -12 -3 -19 0 -19 9 0 8 -5 14
-11 14 -7 0 -9 10 -7 25 3 14 2 28 -3 31 -12 7 0 33 14 30 7 -1 9 -1 5 1 -15
8 -8 22 7 17 11 -4 13 -2 9 9 -3 8 0 18 7 23 7 4 10 3 5 -4 -3 -6 -1 -14 5
-18 7 -4 9 -3 5 4 -3 6 -2 13 4 17 5 3 10 11 10 16 0 6 -5 7 -12 3 -8 -5 -9
-1 -5 12 7 18 6 18 -9 -1 -8 -11 -19 -19 -24 -18 -5 2 -7 -4 -4 -12 4 -10 0
-15 -15 -15 -12 0 -21 -5 -21 -11 0 -5 4 -7 10 -4 6 3 7 -1 4 -10 -5 -12 -10
-13 -20 -4 -18 15 -33 3 -27 -20 4 -16 1 -19 -15 -14 -11 2 -22 1 -25 -4 -3
-5 7 -8 21 -7 21 1 27 6 26 23 -1 31 19 20 23 -12 2 -15 5 -39 7 -54 2 -16 5
-31 5 -35 1 -5 10 -8 21 -8 11 0 20 -7 20 -16 0 -8 -4 -13 -9 -9 -6 3 -15 -5
-21 -17 -11 -22 -10 -22 4 -4 9 11 16 16 16 10 0 -5 7 -1 14 9 9 12 16 14 21
7 3 -5 11 -8 16 -5 5 4 9 -1 9 -9 0 -10 -7 -13 -21 -11 -12 3 -18 1 -15 -3 4
-4 13 -7 19 -7 7 0 12 -15 13 -32 0 -18 -4 -33 -8 -33 -5 0 -6 -6 -1 -12 12
-19 11 -58 -2 -58 -5 0 -4 -4 3 -9 17 -11 17 -21 0 -32 -10 -7 -10 -9 0 -9 6
0 12 -7 12 -15 0 -8 -6 -15 -12 -15 -8 0 -9 -3 -3 -8 6 -4 11 -27 12 -51 1
-30 -2 -40 -8 -30 -7 11 -9 11 -9 -3 0 -10 4 -18 9 -18 5 0 9 -29 9 -65 0 -36
-4 -62 -9 -59 -5 3 -9 0 -9 -5 0 -6 4 -11 8 -11 4 0 9 -16 10 -36 2 -27 0 -34
-10 -28 -10 6 -10 4 0 -9 14 -17 7 -41 -9 -31 -5 3 -7 10 -4 15 3 5 -1 6 -10
2 -13 -5 -14 -7 -3 -14 11 -8 11 -11 -1 -18 -8 -5 -20 -7 -28 -4 -7 3 -16 -2
-19 -11 -3 -9 -11 -13 -17 -9 -6 3 -7 1 -3 -6 4 -6 11 -9 16 -6 4 3 10 -1 13
-7 3 -9 9 -7 20 7 16 20 29 16 33 -10 1 -8 -4 -11 -12 -8 -8 3 -14 0 -14 -6 0
-9 -5 -9 -20 -1 -11 6 -20 8 -20 4 0 -3 -6 -2 -13 4 -9 8 -17 8 -27 0 -13 -8
-12 -9 1 -5 21 7 39 -11 32 -30 -3 -8 0 -19 8 -24 21 -13 -6 -12 -34 2 -21 10
-21 10 -3 -5 11 -9 23 -16 28 -16 12 0 5 -23 -11 -36 -15 -11 -6 -38 9 -29 5
3 10 0 13 -7 2 -7 3 -6 2 2 0 8 -7 14 -13 12 -19 -3 -14 7 16 34 15 14 22 23
16 20 -7 -3 -11 8 -12 29 -1 19 3 35 8 35 13 0 22 -18 11 -22 -5 -1 0 -22 11
-45 11 -24 25 -40 31 -36 6 3 7 1 3 -5 -4 -7 -2 -12 3 -12 6 0 11 5 11 11 0 8
4 8 13 1 10 -8 16 -6 25 9 7 11 16 18 21 15 11 -7 45 35 35 43 -14 9 -14 45
-1 53 16 11 -24 5 -40 -5 -25 -16 -13 3 13 19 31 21 45 7 38 -35 -3 -20 -2
-23 6 -11 8 11 9 8 6 -15 -2 -16 -5 -32 -6 -35 -1 -3 -2 -8 -1 -13 0 -4 -6 -7
-15 -7 -8 0 -13 -4 -10 -9 6 -9 -22 -26 -37 -22 -5 1 -7 -4 -5 -11 2 -6 16
-13 30 -13 19 -1 25 2 21 12 -3 8 0 13 7 11 7 -2 14 8 16 21 3 14 9 30 14 36
5 7 6 16 2 20 -4 5 2 5 13 2 19 -7 19 -6 2 7 -13 10 -17 21 -12 38 4 16 3 19
-3 10 -7 -11 -11 -8 -15 10 -4 13 -18 30 -31 38 -14 7 -23 16 -21 21 3 4 -5 5
-16 2 -21 -6 -21 -3 -17 61 2 42 0 66 -7 66 -7 0 -7 3 0 8 12 8 13 27 3 37
-11 12 11 46 25 39 7 -4 9 -4 5 1 -4 4 0 15 10 23 12 10 8 9 -10 -2 -31 -18
-47 -21 -31 -5 7 7 8 21 3 40 -7 22 -5 29 5 29 9 0 12 -6 9 -15 -4 -8 -4 -15
-1 -15 3 0 8 7 11 15 3 10 -2 18 -14 23 -18 7 -18 10 -6 34 13 24 12 26 -2 21
-10 -3 -6 4 8 16 25 20 25 20 2 14 -21 -5 -22 -3 -12 21 6 18 6 26 -1 26 -6 0
-7 5 -4 10 4 6 10 8 15 5 5 -3 12 0 16 6 4 7 3 9 -4 5 -6 -3 -14 4 -18 16 -15
48 -4 145 16 133 5 -3 11 -1 15 5 4 6 11 8 16 5 5 -4 9 -1 9 5 0 6 4 9 9 5 5
-3 13 0 17 6 4 8 3 9 -4 5 -7 -4 -12 -2 -12 3 0 6 5 11 11 11 5 0 7 5 3 12 -5
8 -2 9 10 5 9 -4 14 -3 11 2 -3 5 -1 12 5 16 5 3 10 11 10 18 0 6 -6 3 -13 -7
-12 -16 -13 -15 -14 6 -1 13 -5 33 -8 45 -4 17 -2 21 10 17 8 -4 15 -2 15 4 0
6 -8 9 -17 8 -19 -3 -43 15 -36 26 2 4 -3 5 -11 2 -9 -3 -16 -1 -16 6 0 6 -4
9 -9 5 -5 -3 -13 0 -17 6 -5 8 1 10 19 7 15 -3 24 -1 21 3 -3 5 -16 9 -30 9
-26 0 -31 9 -12 28 9 9 9 12 0 12 -7 0 -12 5 -12 11 0 5 5 7 10 4 12 -7 14 8
3 19 -10 10 -11 76 -1 70 5 -3 8 0 8 5 0 6 -3 11 -7 11 -11 0 -10 112 0 128 5
7 4 12 -2 12 -6 0 -11 4 -11 10 0 5 6 7 14 4 8 -3 17 -1 20 4 3 5 -1 9 -10 8
-11 -1 -17 9 -20 29 -2 22 -1 26 6 15 8 -13 10 -12 10 3 0 9 -4 17 -9 17 -4 0
-7 28 -7 63 2 54 5 62 22 62 10 0 18 -6 16 -13 -1 -8 2 -11 8 -7 7 5 8 11 1
19 -15 18 4 40 29 33 16 -4 20 -3 12 5 -11 11 3 56 23 70 6 5 5 8 -2 8 -7 0
-13 5 -13 11 0 5 5 7 10 4 19 -12 10 7 -12 27 -18 16 -19 18 -5 14 11 -3 16
-2 12 4 -3 6 -14 10 -25 10 -10 0 -21 7 -24 16 -3 8 -10 12 -16 9 -5 -3 -10
-2 -10 3 0 13 -49 22 -56 10z m-10 -957 c4 -5 -3 -7 -14 -4 -23 6 -26 13 -6
13 8 0 17 -4 20 -9z m56 -652 c0 -6 7 -9 15 -6 8 4 17 2 20 -2 10 -18 -27 -20
-53 -3 -14 9 -23 11 -19 5 5 -8 3 -13 -7 -13 -17 0 -29 14 -19 24 11 10 63 7
63 -5z m-100 -3 c0 -3 -4 -8 -10 -11 -5 -3 -10 -1 -10 4 0 6 5 11 10 11 6 0
10 -2 10 -4z"/>
<path d="M2390 2300 c0 -5 5 -10 11 -10 5 0 7 5 4 10 -3 6 -8 10 -11 10 -2 0
-4 -4 -4 -10z"/>
<path d="M2468 2303 c6 -2 9 -10 6 -15 -4 -7 -2 -8 4 -4 18 11 14 26 -5 25
-11 0 -13 -3 -5 -6z"/>
<path d="M2122 2286 c10 -7 14 -17 10 -21 -4 -5 -1 -5 6 -1 10 6 10 11 1 22
-6 8 -17 14 -23 14 -6 0 -3 -7 6 -14z"/>
<path d="M2170 2290 c8 -5 20 -10 25 -10 6 0 3 5 -5 10 -8 5 -19 10 -25 10 -5
0 -3 -5 5 -10z"/>
<path d="M2227 2285 c3 -8 9 -12 14 -9 12 7 11 11 -5 17 -10 4 -13 1 -9 -8z"/>
<path d="M2514 2285 c-4 -8 -11 -12 -17 -8 -6 3 -7 1 -3 -5 9 -15 9 -15 29 8
9 11 12 20 7 20 -6 0 -13 -7 -16 -15z"/>
<path d="M2078 2278 c-7 -17 15 -19 29 -3 4 4 3 5 -4 2 -6 -4 -13 -2 -15 5 -3
8 -6 6 -10 -4z"/>
<path d="M2156 2263 c-6 -14 -5 -15 5 -6 7 7 10 15 7 18 -3 3 -9 -2 -12 -12z"/>
<path d="M2533 2273 c4 -3 -1 -12 -11 -20 -15 -13 -15 -13 6 -3 19 9 23 30 5
30 -4 0 -3 -3 0 -7z"/>
<path d="M2101 2250 c-9 -5 -4 -7 13 -7 29 0 32 2 13 10 -8 3 -20 2 -26 -3z"/>
<path d="M2554 2249 c-4 -7 -3 -9 4 -5 5 3 13 0 15 -6 4 -9 6 -10 6 -1 1 17
-16 25 -25 12z"/>
<path d="M2153 2218 c-2 -18 0 -20 7 -8 12 18 13 30 2 30 -4 0 -9 -10 -9 -22z"/>
<path d="M2536 2226 c5 -13 4 -17 -4 -12 -7 4 -12 2 -12 -3 0 -14 17 -14 26 0
3 6 1 16 -5 22 -9 9 -10 7 -5 -7z"/>
<path d="M2071 2214 c0 -11 3 -14 6 -6 3 7 2 16 -1 19 -3 4 -6 -2 -5 -13z"/>
<path d="M2103 2211 c-9 -15 -10 -22 -1 -27 6 -4 8 -3 4 4 -3 5 -1 12 5 14 7
2 10 9 8 16 -3 8 -9 5 -16 -7z"/>
<path d="M2556 2204 c-8 -20 -8 -24 2 -24 4 0 8 9 9 20 2 24 -3 26 -11 4z"/>
<path d="M2142 2187 c10 -8 14 -18 10 -22 -4 -5 -1 -5 6 -1 17 10 15 14 -10
26 -21 10 -21 10 -6 -3z"/>
<path d="M2061 2184 c-1 -6 5 -17 12 -23 10 -8 14 -7 14 4 0 8 -4 12 -8 9 -4
-2 -10 2 -12 8 -4 8 -6 9 -6 2z"/>
<path d="M2110 2170 c-12 -7 -10 -9 7 -7 12 0 19 5 17 9 -6 10 -6 10 -24 -2z"/>
<path d="M2490 2170 c0 -5 5 -10 10 -10 6 0 10 5 10 10 0 6 -4 10 -10 10 -5 0
-10 -4 -10 -10z"/>
<path d="M2525 2170 c-3 -5 -1 -10 4 -10 6 0 11 5 11 10 0 6 -2 10 -4 10 -3 0
-8 -4 -11 -10z"/>
<path d="M2112 2134 c-7 -8 -8 -14 -3 -14 10 0 25 19 20 25 -2 1 -10 -3 -17
-11z"/>
<path d="M2474 2139 c-3 -6 -2 -15 3 -20 5 -5 9 -1 10 11 2 22 -2 25 -13 9z"/>
<path d="M2512 2130 c0 -14 2 -19 5 -12 2 6 2 18 0 25 -3 6 -5 1 -5 -13z"/>
<path d="M2076 2132 c-2 -4 -1 -14 4 -22 7 -11 9 -9 7 8 -1 24 -3 26 -11 14z"/>
<path d="M2154 2129 c-3 -6 -3 -13 0 -16 3 -4 6 -1 6 5 0 6 7 9 15 6 8 -4 15
-4 15 -1 0 11 -30 16 -36 6z"/>
<path d="M2430 2130 c0 -5 9 -14 20 -20 11 -6 20 -9 20 -8 0 2 -9 11 -20 21
-11 9 -20 13 -20 7z"/>
<path d="M2562 2128 c-15 -15 -15 -28 0 -28 6 0 8 3 5 7 -4 3 -2 12 4 20 14
16 7 17 -9 1z"/>
<path d="M2060 2104 c0 -5 7 -18 15 -28 8 -11 15 -16 15 -10 0 5 -7 18 -15 28
-8 11 -15 16 -15 10z"/>
<path d="M2213 2095 c0 -8 4 -12 9 -9 5 3 6 10 3 15 -9 13 -12 11 -12 -6z"/>
<path d="M2100 2090 c0 -5 5 -10 11 -10 5 0 7 5 4 10 -3 6 -8 10 -11 10 -2 0
-4 -4 -4 -10z"/>
<path d="M2130 2090 c0 -5 5 -10 10 -10 6 0 10 5 10 10 0 6 -4 10 -10 10 -5 0
-10 -4 -10 -10z"/>
<path d="M2390 2089 c0 -5 5 -7 10 -4 6 3 10 8 10 11 0 2 -4 4 -10 4 -5 0 -10
-5 -10 -11z"/>
<path d="M2490 2089 c0 -4 10 -6 21 -4 32 6 34 13 4 13 -14 0 -25 -4 -25 -9z"/>
<path d="M2455 2081 c-3 -5 0 -13 6 -17 7 -4 9 -3 5 4 -3 5 0 13 6 15 9 4 10
6 1 6 -6 1 -14 -3 -18 -8z"/>
<path d="M2230 2069 c0 -5 5 -7 10 -4 6 3 10 8 10 11 0 2 -4 4 -10 4 -5 0 -10
-5 -10 -11z"/>
<path d="M2420 2062 c6 -12 15 -20 20 -17 4 3 11 0 13 -5 4 -7 5 -6 4 1 -2 6
-6 9 -9 7 -4 -2 -14 6 -23 17 -16 19 -16 19 -5 -3z"/>
<path d="M2143 2051 c-7 -11 -9 -22 -6 -25 10 -10 33 -7 33 4 0 5 -8 6 -17 3
-16 -6 -16 -5 -4 10 8 10 12 19 10 22 -3 2 -10 -4 -16 -14z"/>
<path d="M2211 2054 c0 -11 3 -14 6 -6 3 7 2 16 -1 19 -3 4 -6 -2 -5 -13z"/>
<path d="M2480 2061 c0 -10 19 -25 25 -20 1 2 -3 10 -11 17 -8 7 -14 8 -14 3z"/>
<path d="M2094 2049 c-3 -6 -2 -15 4 -21 6 -6 12 -6 17 3 6 8 4 10 -5 4 -10
-6 -12 -4 -7 8 7 19 2 23 -9 6z"/>
<path d="M2520 2056 c0 -2 7 -7 16 -10 8 -3 12 -2 9 4 -6 10 -25 14 -25 6z"/>
<path d="M2230 2030 c0 -6 7 -10 15 -10 8 0 15 2 15 4 0 2 -7 6 -15 10 -8 3
-15 1 -15 -4z"/>
<path d="M2276 2025 c-9 -26 -7 -32 5 -12 6 10 9 21 6 23 -2 3 -7 -2 -11 -11z"/>
<path d="M2377 2027 c3 -5 14 -6 25 -4 16 4 19 2 15 -13 -2 -10 4 -25 14 -34
11 -9 19 -12 19 -6 0 5 -6 13 -12 17 -7 4 -13 17 -13 27 0 14 -7 20 -27 20
-14 1 -24 -2 -21 -7z"/>
<path d="M2470 2030 c0 -5 5 -10 11 -10 5 0 7 5 4 10 -3 6 -8 10 -11 10 -2 0
-4 -4 -4 -10z"/>
<path d="M2510 2030 c-13 -8 -12 -10 3 -10 9 0 17 5 17 10 0 12 -1 12 -20 0z"/>
<path d="M2064 2020 c1 -7 5 -11 10 -10 5 1 12 -4 17 -11 4 -7 19 -13 32 -13
14 -1 23 2 20 7 -3 5 -13 7 -23 4 -11 -3 -21 2 -24 10 -3 8 -10 12 -15 9 -5
-4 -12 -1 -14 4 -4 7 -5 6 -3 0z"/>
<path d="M2176 2015 c-3 -8 -1 -15 4 -15 6 0 10 7 10 15 0 8 -2 15 -4 15 -2 0
-6 -7 -10 -15z"/>
<path d="M2210 2015 c0 -8 4 -15 10 -15 5 0 7 7 4 15 -4 8 -8 15 -10 15 -2 0
-4 -7 -4 -15z"/>
<path d="M2542 2010 c0 -14 2 -19 5 -12 2 6 2 18 0 25 -3 6 -5 1 -5 -13z"/>
<path d="M2340 2012 c0 -5 7 -9 15 -9 8 0 15 4 15 9 0 4 -7 8 -15 8 -8 0 -15
-4 -15 -8z"/>
<path d="M2455 2001 c-6 -11 13 -26 22 -17 4 3 1 6 -6 6 -7 0 -9 5 -6 10 3 6
4 10 1 10 -3 0 -7 -4 -11 -9z"/>
<path d="M2500 1996 c0 -2 7 -6 15 -10 8 -3 15 -1 15 4 0 6 -7 10 -15 10 -8 0
-15 -2 -15 -4z"/>
<path d="M2188 1983 c7 -3 16 -2 19 1 4 3 -2 6 -13 5 -11 0 -14 -3 -6 -6z"/>
<path d="M2220 1986 c0 -2 7 -6 15 -10 8 -3 15 -1 15 4 0 6 -7 10 -15 10 -8 0
-15 -2 -15 -4z"/>
<path d="M2075 1971 c-3 -5 -2 -12 3 -15 5 -3 9 1 9 9 0 17 -3 19 -12 6z"/>
<path d="M2110 1970 c-9 -6 -10 -10 -3 -10 6 0 15 5 18 10 8 12 4 12 -15 0z"/>
<path d="M2275 1970 c-3 -5 -1 -10 4 -10 6 0 11 5 11 10 0 6 -2 10 -4 10 -3 0
-8 -4 -11 -10z"/>
<path d="M2370 1969 c0 -5 5 -7 10 -4 6 3 10 8 10 11 0 2 -4 4 -10 4 -5 0 -10
-5 -10 -11z"/>
<path d="M2396 1965 c-9 -26 -7 -32 5 -12 6 10 9 21 6 23 -2 3 -7 -2 -11 -11z"/>
<path d="M2490 1970 c0 -5 5 -10 10 -10 6 0 10 5 10 10 0 6 -4 10 -10 10 -5 0
-10 -4 -10 -10z"/>
<path d="M2541 1967 c-1 -11 -6 -15 -13 -11 -7 5 -8 3 -3 -5 10 -16 29 2 22
21 -4 8 -6 7 -6 -5z"/>
<path d="M2150 1961 c0 -7 -5 -9 -12 -5 -7 4 -10 4 -6 0 3 -4 10 -8 15 -8 4
-1 14 -8 21 -17 11 -13 11 -12 1 9 -15 32 -19 36 -19 21z"/>
<path d="M2255 1950 c6 -10 4 -12 -8 -7 -8 3 -18 0 -20 -7 -4 -10 1 -12 14 -9
25 7 33 20 18 29 -8 5 -9 3 -4 -6z"/>
<path d="M2453 1947 c-3 -7 -3 -9 2 -5 4 4 14 0 22 -10 8 -9 12 -12 9 -5 -4 6
-1 13 6 15 7 3 2 7 -10 10 -12 4 -25 1 -29 -5z"/>
<path d="M2061 1944 c-1 -6 5 -17 12 -23 10 -8 14 -7 14 4 0 8 -4 12 -8 9 -4
-2 -10 2 -12 8 -4 8 -6 9 -6 2z"/>
<path d="M2195 1940 c3 -5 8 -10 11 -10 2 0 4 5 4 10 0 6 -5 10 -11 10 -5 0
-7 -4 -4 -10z"/>
<path d="M2370 1935 c0 -8 4 -15 10 -15 5 0 7 7 4 15 -4 8 -8 15 -10 15 -2 0
-4 -7 -4 -15z"/>
<path d="M2433 1924 c0 -17 2 -22 7 -13 5 6 6 18 3 26 -8 19 -10 16 -10 -13z"/>
<path d="M2549 1931 c-7 -10 -20 -16 -29 -14 -10 3 -20 1 -23 -4 -12 -19 45
-5 59 15 8 12 13 22 10 22 -3 0 -11 -8 -17 -19z"/>
<path d="M2111 1930 c-9 -5 -4 -7 13 -7 29 0 32 2 13 10 -8 3 -20 2 -26 -3z"/>
<path d="M2270 1921 c0 -7 -5 -9 -12 -5 -7 5 -8 3 -3 -5 5 -9 10 -10 18 -2 6
6 8 14 4 18 -4 3 -7 1 -7 -6z"/>
<path d="M2190 1910 c0 -5 5 -10 10 -10 6 0 10 5 10 10 0 6 -4 10 -10 10 -5 0
-10 -4 -10 -10z"/>
<path d="M2455 1911 c-3 -5 2 -17 11 -25 19 -20 25 -20 18 -1 -4 8 -10 15 -16
15 -5 0 -6 5 -3 10 3 6 4 10 1 10 -3 0 -7 -4 -11 -9z"/>
<path d="M2358 1903 c7 -3 16 -2 19 1 4 3 -2 6 -13 5 -11 0 -14 -3 -6 -6z"/>
<path d="M2156 1892 c-2 -4 0 -14 6 -22 8 -12 9 -12 5 2 -3 9 -1 19 6 22 9 3
9 5 0 5 -6 1 -14 -3 -17 -7z"/>
<path d="M2235 1890 c27 -12 43 -12 25 0 -8 5 -22 9 -30 9 -10 0 -8 -3 5 -9z"/>
<path d="M2511 1884 c0 -11 3 -14 6 -6 3 7 2 16 -1 19 -3 4 -6 -2 -5 -13z"/>
<path d="M2553 1878 c-1 -10 3 -18 9 -18 6 0 8 3 5 7 -4 3 -2 11 3 18 7 8 6
12 -3 12 -7 0 -14 -9 -14 -19z"/>
<path d="M2095 1880 c-7 -12 20 -25 33 -16 6 3 12 -1 16 -9 3 -8 10 -15 16
-15 5 0 3 8 -6 19 -10 11 -24 17 -37 13 -14 -3 -18 -1 -13 6 4 7 5 12 2 12 -3
0 -8 -5 -11 -10z"/>
<path d="M2385 1877 c-15 -12 -16 -15 -4 -22 8 -5 10 -4 6 0 -4 5 3 15 15 22
13 7 18 12 12 13 -5 0 -18 -6 -29 -13z"/>
<path d="M2430 1870 c0 -5 5 -10 10 -10 6 0 10 5 10 10 0 6 -4 10 -10 10 -5 0
-10 -4 -10 -10z"/>
<path d="M2068 1862 c8 -5 13 -13 12 -18 -1 -5 4 -10 12 -12 11 -3 11 -2 0 6
-8 5 -13 13 -12 18 1 5 -4 10 -12 12 -11 3 -11 2 0 -6z"/>
<path d="M2180 1855 c0 -8 29 -12 39 -5 9 5 4 8 -13 8 -14 0 -26 -2 -26 -3z"/>
<path d="M2469 1843 c15 -30 14 -33 -6 -27 -15 5 -15 4 -3 -4 29 -21 39 3 14
34 -15 18 -15 18 -5 -3z"/>
<path d="M2490 1849 c0 -4 10 -6 21 -4 32 6 34 13 4 13 -14 0 -25 -4 -25 -9z"/>
<path d="M2397 1843 c-4 -3 -7 -11 -7 -17 0 -6 5 -5 12 2 6 6 9 14 7 17 -3 3
-9 2 -12 -2z"/>
<path d="M2435 1840 c-3 -5 -1 -10 4 -10 6 0 11 5 11 10 0 6 -2 10 -4 10 -3 0
-8 -4 -11 -10z"/>
<path d="M2115 1830 c3 -5 8 -10 11 -10 2 0 4 5 4 10 0 6 -5 10 -11 10 -5 0
-7 -4 -4 -10z"/>
<path d="M2215 1829 c-5 -8 -4 -10 0 -6 5 4 15 -3 22 -15 7 -13 12 -18 13 -12
0 5 -6 18 -13 29 -12 15 -15 16 -22 4z"/>
<path d="M2370 1815 c0 -8 4 -15 10 -15 5 0 7 7 4 15 -4 8 -8 15 -10 15 -2 0
-4 -7 -4 -15z"/>
<path d="M2095 1810 c3 -5 8 -10 11 -10 2 0 4 5 4 10 0 6 -5 10 -11 10 -5 0
-7 -4 -4 -10z"/>
<path d="M2180 1805 c0 -9 -6 -12 -15 -9 -8 4 -15 2 -15 -4 0 -14 33 -8 38 6
2 7 9 9 14 6 7 -4 8 -2 4 4 -10 17 -26 15 -26 -3z"/>
<path d="M2514 1805 c-4 -8 -11 -12 -17 -8 -6 3 -7 1 -3 -5 9 -15 9 -15 29 8
9 11 12 20 7 20 -6 0 -13 -7 -16 -15z"/>
<path d="M2560 1810 c-9 -6 -10 -10 -3 -10 6 0 15 5 18 10 8 12 4 12 -15 0z"/>
<path d="M2214 1785 c-4 -8 -11 -12 -17 -8 -6 3 -7 1 -3 -5 10 -16 14 -15 26
8 6 11 8 20 5 20 -3 0 -8 -7 -11 -15z"/>
<path d="M2346 1792 c-3 -4 4 -9 15 -9 23 -2 25 3 4 10 -8 4 -16 3 -19 -1z"/>
<path d="M2438 1793 c7 -3 16 -2 19 1 4 3 -2 6 -13 5 -11 0 -14 -3 -6 -6z"/>
<path d="M2540 1780 c6 -11 13 -20 16 -20 2 0 0 9 -6 20 -6 11 -13 20 -16 20
-2 0 0 -9 6 -20z"/>
<path d="M2096 1775 c-3 -8 -1 -15 4 -15 6 0 10 7 10 15 0 8 -2 15 -4 15 -2 0
-6 -7 -10 -15z"/>
<path d="M2130 1775 c0 -8 4 -15 10 -15 5 0 7 7 4 15 -4 8 -8 15 -10 15 -2 0
-4 -7 -4 -15z"/>
<path d="M2251 1777 c2 -1 13 -9 24 -17 19 -14 19 -14 6 3 -7 9 -18 17 -24 17
-6 0 -8 -1 -6 -3z"/>
<path d="M2415 1770 c3 -5 8 -10 11 -10 2 0 4 5 4 10 0 6 -5 10 -11 10 -5 0
-7 -4 -4 -10z"/>
<path d="M2452 1763 c2 -12 11 -17 27 -15 16 3 21 0 16 -9 -5 -8 -4 -10 4 -5
17 11 1 28 -21 23 -14 -4 -18 -2 -14 9 3 8 1 14 -5 14 -6 0 -9 -8 -7 -17z"/>
<path d="M2173 1765 c4 -5 -5 -16 -20 -26 -25 -16 -25 -18 -5 -16 11 0 19 3
17 6 -3 2 3 9 12 16 13 10 14 13 2 20 -8 5 -11 4 -6 0z"/>
<path d="M2353 1755 c0 -8 4 -12 9 -9 5 3 6 10 3 15 -9 13 -12 11 -12 -6z"/>
<path d="M2205 1747 c-15 -12 -16 -15 -4 -22 8 -5 11 -5 7 0 -4 4 0 14 10 21
23 18 11 18 -13 1z"/>
<path d="M2240 1745 c-9 -10 -9 -15 -1 -15 6 0 11 5 11 11 0 5 5 7 12 3 7 -4
8 -3 4 4 -9 15 -11 15 -26 -3z"/>
<path d="M2380 1756 c0 -2 7 -6 15 -10 8 -3 15 -1 15 4 0 6 -7 10 -15 10 -8 0
-15 -2 -15 -4z"/>
<path d="M2525 1749 c-5 -8 -5 -11 0 -7 4 4 14 0 21 -10 11 -14 15 -15 26 -3
11 12 11 13 0 6 -8 -4 -18 0 -26 11 -11 14 -14 15 -21 3z"/>
<path d="M2068 1743 c6 -2 18 -2 25 0 6 3 1 5 -13 5 -14 0 -19 -2 -12 -5z"/>
<path d="M2118 1743 c7 -3 16 -2 19 1 4 3 -2 6 -13 5 -11 0 -14 -3 -6 -6z"/>
<path d="M2405 1728 l-20 -21 23 12 c12 6 22 16 22 21 0 13 -2 12 -25 -12z"/>
<path d="M2365 1729 c-11 -16 -1 -19 13 -3 7 8 8 14 3 14 -5 0 -13 -5 -16 -11z"/>
<path d="M2174 1708 c-4 -7 -3 -8 4 -4 11 7 17 -6 13 -27 -1 -5 3 -6 9 -2 7 4
7 12 0 26 -12 22 -16 23 -26 7z"/>
<path d="M2215 1710 c-3 -6 1 -7 9 -4 18 7 21 14 7 14 -6 0 -13 -4 -16 -10z"/>
<path d="M2257 1709 c7 -7 15 -10 18 -7 3 3 -2 9 -12 12 -14 6 -15 5 -6 -5z"/>
<path d="M2430 1710 c0 -5 5 -10 10 -10 6 0 10 5 10 10 0 6 -4 10 -10 10 -5 0
-10 -4 -10 -10z"/>
<path d="M2113 1685 c0 -14 3 -25 8 -25 4 0 6 10 4 21 -6 32 -12 34 -12 4z"/>
<path d="M2150 1701 c0 -10 19 -25 25 -20 1 2 -3 10 -11 17 -8 7 -14 8 -14 3z"/>
<path d="M2359 1683 c-13 -17 -13 -17 6 -3 11 8 22 16 24 17 2 2 0 3 -6 3 -6
0 -17 -8 -24 -17z"/>
<path d="M2404 1685 c-4 -8 -10 -13 -14 -10 -5 3 -12 0 -16 -6 -4 -7 -3 -9 4
-5 5 3 12 1 14 -5 2 -6 9 0 16 15 6 14 9 26 6 26 -2 0 -7 -7 -10 -15z"/>
<path d="M2490 1695 c0 -8 29 -12 39 -5 9 5 4 8 -13 8 -14 0 -26 -2 -26 -3z"/>
<path d="M2278 1683 c7 -3 16 -2 19 1 4 3 -2 6 -13 5 -11 0 -14 -3 -6 -6z"/>
<path d="M2430 1680 c0 -5 5 -10 11 -10 5 0 7 5 4 10 -3 6 -8 10 -11 10 -2 0
-4 -4 -4 -10z"/>
<path d="M2471 1685 c0 -5 4 -17 9 -25 7 -11 10 -11 10 -2 0 7 5 10 12 6 7 -4
8 -3 4 5 -4 6 -11 9 -16 6 -4 -3 -11 1 -13 7 -3 7 -6 9 -6 3z"/>
<path d="M2214 1665 c-3 -8 -2 -19 2 -26 5 -9 1 -11 -14 -7 -15 4 -26 -1 -37
-18 -21 -32 -19 -45 3 -14 9 14 26 25 36 25 14 0 20 8 20 28 2 30 -2 34 -10
12z"/>
<path d="M2248 1673 c6 -2 9 -10 6 -15 -4 -7 -2 -8 5 -4 13 9 5 26 -12 25 -9
0 -8 -2 1 -6z"/>
<path d="M2533 1673 c4 -3 -1 -12 -11 -20 -15 -13 -15 -13 6 -3 19 9 23 30 5
30 -4 0 -3 -3 0 -7z"/>
<path d="M2077 1640 c-9 -11 -13 -20 -7 -20 5 0 14 9 20 20 6 11 9 20 8 20 -2
0 -11 -9 -21 -20z"/>
<path d="M2135 1650 c-3 -6 1 -7 10 -4 11 5 14 2 9 -12 -5 -15 -4 -16 4 -4 11
15 7 30 -8 30 -5 0 -12 -4 -15 -10z"/>
<path d="M2345 1650 c3 -5 11 -10 16 -10 6 0 7 5 4 10 -3 6 -11 10 -16 10 -6
0 -7 -4 -4 -10z"/>
<path d="M2560 1650 c-9 -6 -10 -10 -3 -10 6 0 15 5 18 10 8 12 4 12 -15 0z"/>
<path d="M2236 1623 c-6 -14 -5 -15 5 -6 7 7 10 15 7 18 -3 3 -9 -2 -12 -12z"/>
<path d="M2375 1631 c-6 -11 13 -26 22 -17 4 3 1 6 -6 6 -7 0 -9 5 -6 10 3 6
4 10 1 10 -3 0 -7 -4 -11 -9z"/>
<path d="M2428 1633 c6 -2 18 -2 25 0 6 3 1 5 -13 5 -14 0 -19 -2 -12 -5z"/>
<path d="M2497 1627 c3 -4 12 -7 21 -5 10 2 23 -3 30 -12 12 -13 12 -12 4 4
-6 11 -21 20 -35 20 -14 1 -23 -2 -20 -7z"/>
<path d="M2256 1615 c-3 -8 -1 -15 4 -15 6 0 10 7 10 15 0 8 -2 15 -4 15 -2 0
-6 -7 -10 -15z"/>
<path d="M2090 1610 c0 -5 5 -10 10 -10 6 0 10 5 10 10 0 6 -4 10 -10 10 -5 0
-10 -4 -10 -10z"/>
<path d="M2416 1605 c4 -8 8 -15 10 -15 2 0 4 7 4 15 0 8 -4 15 -10 15 -5 0
-7 -7 -4 -15z"/>
<path d="M2450 1605 c0 -8 2 -15 4 -15 2 0 6 7 10 15 3 8 1 15 -4 15 -6 0 -10
-7 -10 -15z"/>
<path d="M2190 1589 c0 -5 5 -7 10 -4 6 3 10 8 10 11 0 2 -4 4 -10 4 -5 0 -10
-5 -10 -11z"/>
<path d="M2220 1596 c0 -2 7 -7 16 -10 8 -3 12 -2 9 4 -6 10 -25 14 -25 6z"/>
<path d="M2364 1584 c-18 -14 -18 -15 4 -4 12 6 22 13 22 15 0 8 -5 6 -26 -11z"/>
<path d="M2396 1584 c-3 -9 -2 -22 2 -31 6 -10 9 -5 9 16 0 35 -2 38 -11 15z"/>
<path d="M2470 1590 c0 -5 7 -7 15 -4 8 4 15 8 15 10 0 2 -7 4 -15 4 -8 0 -15
-4 -15 -10z"/>
<path d="M2525 1589 c-5 -8 -5 -11 0 -7 4 4 14 0 21 -10 11 -14 15 -15 26 -3
11 12 11 13 0 6 -8 -4 -18 0 -26 11 -11 14 -14 15 -21 3z"/>
<path d="M2077 1577 c-3 -8 -2 -20 3 -26 5 -9 8 -4 8 13 0 29 -3 32 -11 13z"/>
<path d="M2163 1570 c-11 -16 -10 -18 2 -14 8 4 15 12 15 20 0 19 -3 18 -17
-6z"/>
<path d="M2120 1565 c0 -8 2 -15 4 -15 2 0 6 7 10 15 3 8 1 15 -4 15 -6 0 -10
-7 -10 -15z"/>
<path d="M2210 1569 c0 -5 5 -7 10 -4 6 3 10 8 10 11 0 2 -4 4 -10 4 -5 0 -10
-5 -10 -11z"/>
<path d="M2421 1564 c0 -11 3 -14 6 -6 3 7 2 16 -1 19 -3 4 -6 -2 -5 -13z"/>
<path d="M2498 1573 c6 -2 12 -9 12 -14 0 -6 -5 -7 -12 -3 -7 5 -8 3 -3 -5 5
-9 11 -9 17 -3 12 12 2 32 -15 31 -9 0 -9 -2 1 -6z"/>
<path d="M2455 1561 c-3 -5 0 -13 6 -17 7 -4 9 -3 5 4 -3 5 0 13 6 15 9 4 10
6 1 6 -6 1 -14 -3 -18 -8z"/>
<path d="M2540 1540 c6 -11 13 -20 16 -20 2 0 0 9 -6 20 -6 11 -13 20 -16 20
-2 0 0 -9 6 -20z"/>
<path d="M2060 1544 c0 -5 7 -18 15 -28 8 -11 15 -16 15 -10 0 5 -7 18 -15 28
-8 11 -15 16 -15 10z"/>
<path d="M2213 1531 c0 -11 5 -18 9 -15 4 3 5 11 1 19 -7 21 -12 19 -10 -4z"/>
<path d="M2103 1533 c9 -8 47 -11 47 -4 0 5 -11 9 -25 9 -14 0 -24 -2 -22 -5z"/>
<path d="M2430 1525 c0 -8 2 -15 4 -15 2 0 6 7 10 15 3 8 1 15 -4 15 -6 0 -10
-7 -10 -15z"/>
<path d="M2477 1533 c-11 -11 -8 -23 7 -23 8 0 13 -10 12 -22 -1 -14 6 -24 17
-26 9 -2 17 1 17 7 0 6 -7 8 -15 5 -10 -4 -13 0 -10 16 2 12 -2 23 -10 27 -8
3 -12 9 -9 14 6 11 0 12 -9 2z"/>
<path d="M2154 1509 c-10 -17 9 -30 26 -18 12 9 12 10 -4 5 -13 -5 -17 -2 -12
9 6 17 0 20 -10 4z"/>
<path d="M2525 1509 c-5 -8 -5 -11 0 -7 4 4 14 0 21 -10 11 -14 15 -15 26 -3
11 12 11 13 0 6 -8 -4 -18 0 -26 11 -11 14 -14 15 -21 3z"/>
<path d="M2112 1486 c7 -8 15 -12 17 -11 5 6 -10 25 -20 25 -5 0 -4 -6 3 -14z"/>
<path d="M2320 1489 c0 -5 5 -7 10 -4 6 3 10 8 10 11 0 2 -4 4 -10 4 -5 0 -10
-5 -10 -11z"/>
<path d="M2095 1471 c-3 -6 3 -15 14 -21 14 -7 22 -7 26 0 4 6 3 10 -2 9 -20
-3 -34 2 -28 11 3 6 4 10 1 10 -3 0 -7 -4 -11 -9z"/>
<path d="M2275 1470 c-3 -5 -1 -10 4 -10 6 0 11 5 11 10 0 6 -2 10 -4 10 -3 0
-8 -4 -11 -10z"/>
<path d="M2060 1461 c0 -10 19 -25 25 -20 1 2 -3 10 -11 17 -8 7 -14 8 -14 3z"/>
<path d="M2330 1460 c0 -5 -5 -9 -11 -7 -6 1 -14 -5 -16 -13 -4 -12 -3 -12 5
-2 5 8 13 13 18 12 5 -1 10 3 12 9 2 6 1 11 -2 11 -3 0 -6 -4 -6 -10z"/>
<path d="M2541 1454 c0 -11 3 -14 6 -6 3 7 2 16 -1 19 -3 4 -6 -2 -5 -13z"/>
<path d="M2450 1449 c0 -5 5 -7 10 -4 6 3 10 8 10 11 0 2 -4 4 -10 4 -5 0 -10
-5 -10 -11z"/>
<path d="M2097 1433 c-10 -10 -8 -41 2 -48 5 -3 13 0 17 6 5 8 3 9 -6 4 -10
-6 -12 -1 -8 19 6 28 5 30 -5 19z"/>
<path d="M2259 1435 c-7 -32 -1 -50 16 -50 11 0 24 -6 28 -12 12 -19 25 -16
37 10 11 21 11 22 -5 2 -15 -18 -17 -18 -26 -3 -5 9 -17 14 -27 11 -13 -3 -18
2 -18 17 0 13 5 19 13 16 7 -3 13 -1 13 4 0 10 -29 14 -31 5z"/>
<path d="M2350 1429 c0 -5 5 -7 10 -4 6 3 10 8 10 11 0 2 -4 4 -10 4 -5 0 -10
-5 -10 -11z"/>
<path d="M2380 1436 c0 -2 7 -6 15 -10 8 -3 15 -1 15 4 0 6 -7 10 -15 10 -8 0
-15 -2 -15 -4z"/>
<path d="M2470 1430 c0 -5 7 -7 15 -4 8 4 15 8 15 10 0 2 -7 4 -15 4 -8 0 -15
-4 -15 -10z"/>
<path d="M2515 1430 c3 -5 8 -10 11 -10 2 0 4 5 4 10 0 6 -5 10 -11 10 -5 0
-7 -4 -4 -10z"/>
<path d="M2330 1421 c0 -7 -4 -9 -10 -6 -5 3 -10 1 -10 -4 0 -6 4 -11 9 -11
13 0 25 20 17 27 -3 4 -6 1 -6 -6z"/>
<path d="M2532 1414 c-7 -8 -8 -14 -3 -14 10 0 25 19 20 25 -2 1 -10 -3 -17
-11z"/>
<path d="M2141 1407 c-6 -8 -8 -17 -4 -20 10 -10 33 -8 33 3 0 5 -8 6 -17 3
-16 -6 -16 -5 -4 10 7 9 11 17 8 17 -2 0 -10 -6 -16 -13z"/>
<path d="M2364 1409 c-3 -6 -2 -15 4 -21 6 -6 12 -6 17 3 5 8 4 10 -3 5 -7 -4
-12 -3 -12 3 0 5 6 12 13 14 9 4 9 6 0 6 -6 1 -15 -4 -19 -10z"/>
<path d="M2485 1409 c-11 -16 -1 -19 13 -3 7 8 8 14 3 14 -5 0 -13 -5 -16 -11z"/>
<path d="M2562 1408 c-15 -15 -15 -28 0 -28 6 0 8 3 5 7 -4 3 -2 12 4 20 14
16 7 17 -9 1z"/>
<path d="M2064 1380 c1 -7 5 -11 10 -10 5 1 12 -4 17 -11 4 -7 19 -13 32 -13
14 -1 23 2 20 7 -3 5 -13 7 -23 4 -11 -3 -21 2 -24 10 -3 8 -10 12 -15 9 -5
-4 -12 -1 -14 4 -4 7 -5 6 -3 0z"/>
<path d="M2176 1375 c-3 -8 -1 -15 4 -15 6 0 10 7 10 15 0 8 -2 15 -4 15 -2 0
-6 -7 -10 -15z"/>
<path d="M2490 1370 c0 -5 5 -10 10 -10 6 0 10 5 10 10 0 6 -4 10 -10 10 -5 0
-10 -4 -10 -10z"/>
<path d="M2525 1370 c-3 -5 -1 -10 4 -10 6 0 11 5 11 10 0 6 -2 10 -4 10 -3 0
-8 -4 -11 -10z"/>
<path d="M2441 1363 c-1 -17 16 -25 25 -12 4 7 3 9 -4 5 -5 -3 -13 0 -15 6 -4
9 -6 10 -6 1z"/>
<path d="M2188 1343 c7 -3 16 -2 19 1 4 3 -2 6 -13 5 -11 0 -14 -3 -6 -6z"/>
<path d="M2474 1339 c-3 -6 -2 -15 3 -20 5 -5 9 -1 10 11 2 22 -2 25 -13 9z"/>
<path d="M2512 1330 c0 -14 2 -19 5 -12 2 6 2 18 0 25 -3 6 -5 1 -5 -13z"/>
<path d="M2075 1331 c-3 -5 -2 -12 3 -15 5 -3 9 1 9 9 0 17 -3 19 -12 6z"/>
<path d="M2110 1330 c-9 -6 -10 -10 -3 -10 6 0 15 5 18 10 8 12 4 12 -15 0z"/>
<path d="M2562 1328 c-15 -15 -15 -28 0 -28 6 0 8 3 5 7 -4 3 -2 12 4 20 14
16 7 17 -9 1z"/>
<path d="M2150 1321 c0 -7 -5 -9 -12 -5 -7 4 -10 4 -6 0 3 -4 10 -8 15 -8 4
-1 14 -8 21 -17 11 -13 11 -12 1 9 -15 32 -19 36 -19 21z"/>
<path d="M2375 1311 c-9 -8 -5 -31 5 -31 5 0 6 8 3 18 -6 15 -5 16 12 2 15
-12 17 -12 10 -1 -6 11 -4 13 9 8 9 -4 15 -3 11 2 -5 10 -42 11 -50 2z"/>
<path d="M2440 1298 c-10 -21 -10 -21 3 -6 8 10 18 14 22 10 5 -4 5 -1 1 6
-10 17 -14 15 -26 -10z"/>
<path d="M2061 1304 c-1 -6 5 -17 12 -23 10 -8 14 -7 14 4 0 8 -4 12 -8 9 -4
-2 -10 2 -12 8 -4 8 -6 9 -6 2z"/>
<path d="M2195 1300 c3 -5 8 -10 11 -10 2 0 4 5 4 10 0 6 -5 10 -11 10 -5 0
-7 -4 -4 -10z"/>
<path d="M2111 1290 c-9 -5 -4 -7 13 -7 29 0 32 2 13 10 -8 3 -20 2 -26 -3z"/>
<path d="M2490 1289 c0 -4 10 -6 21 -4 32 6 34 13 4 13 -14 0 -25 -4 -25 -9z"/>
<path d="M2253 1285 c4 -5 -2 -14 -14 -20 -20 -11 -20 -12 -3 -19 10 -4 15 -4
11 0 -4 4 1 12 10 19 13 10 14 13 2 20 -8 5 -10 4 -6 0z"/>
<path d="M2455 1281 c-3 -5 0 -13 6 -17 7 -4 9 -3 5 4 -3 5 0 13 6 15 9 4 10
6 1 6 -6 1 -14 -3 -18 -8z"/>
<path d="M2190 1270 c0 -5 5 -10 10 -10 6 0 10 5 10 10 0 6 -4 10 -10 10 -5 0
-10 -4 -10 -10z"/>
<path d="M2400 1269 c-13 -9 -13 -10 2 -6 9 3 19 -1 22 -9 3 -9 10 -13 15 -10
5 4 12 1 14 -4 4 -7 5 -6 4 1 -2 6 -6 9 -9 7 -4 -2 -13 5 -20 14 -10 13 -17
15 -28 7z"/>
<path d="M2275 1260 c-3 -5 -3 -10 2 -10 4 0 1 -5 -9 -10 -10 -6 -14 -18 -11
-30 4 -15 1 -18 -16 -15 -11 2 -24 -2 -27 -8 -4 -7 -4 -9 1 -5 4 4 14 0 22
-10 12 -16 13 -16 7 1 -4 12 -2 17 7 15 8 -2 14 5 14 17 0 11 7 25 15 32 8 7
11 13 5 13 -5 0 -3 5 5 10 9 6 10 10 3 10 -6 0 -15 -4 -18 -10z"/>
<path d="M2358 1263 c7 -3 16 -2 19 1 4 3 -2 6 -13 5 -11 0 -14 -3 -6 -6z"/>
<path d="M2480 1261 c0 -10 19 -25 25 -20 1 2 -3 10 -11 17 -8 7 -14 8 -14 3z"/>
<path d="M2156 1252 c-2 -4 0 -14 6 -22 8 -12 9 -12 5 2 -3 9 -1 19 6 22 9 3
9 5 0 5 -6 1 -14 -3 -17 -7z"/>
<path d="M2532 1246 c7 -8 15 -12 17 -11 5 6 -10 25 -20 25 -5 0 -4 -6 3 -14z"/>
<path d="M2095 1240 c-7 -12 20 -25 33 -16 6 3 12 -1 16 -9 3 -8 10 -15 16
-15 5 0 3 8 -6 19 -10 11 -24 17 -37 13 -14 -3 -18 -1 -13 6 4 7 5 12 2 12 -3
0 -8 -5 -11 -10z"/>
<path d="M2360 1238 c9 -7 14 -20 12 -30 -4 -20 14 -33 24 -17 5 8 3 9 -6 4
-10 -6 -12 -3 -7 14 4 15 -1 24 -16 32 -19 9 -20 8 -7 -3z"/>
<path d="M2404 1229 c-5 -8 -3 -9 6 -4 10 6 12 4 7 -8 -3 -10 -2 -17 3 -17 13
0 13 27 1 35 -5 3 -13 0 -17 -6z"/>
<path d="M2470 1230 c0 -6 7 -10 15 -10 8 0 15 2 15 4 0 2 -7 6 -15 10 -8 3
-15 1 -15 -4z"/>
<path d="M2515 1230 c-3 -5 -1 -10 4 -10 6 0 11 5 11 10 0 6 -2 10 -4 10 -3 0
-8 -4 -11 -10z"/>
<path d="M2068 1222 c8 -5 13 -13 12 -18 -1 -5 4 -10 12 -12 11 -3 11 -2 0 6
-8 5 -13 13 -12 18 1 5 -4 10 -12 12 -11 3 -11 2 0 -6z"/>
<path d="M2180 1215 c0 -8 29 -12 39 -5 9 5 4 8 -13 8 -14 0 -26 -2 -26 -3z"/>
<path d="M2450 1210 c0 -5 5 -10 11 -10 5 0 7 5 4 10 -3 6 -8 10 -11 10 -2 0
-4 -4 -4 -10z"/>
<path d="M2541 1204 c0 -11 3 -14 6 -6 3 7 2 16 -1 19 -3 4 -6 -2 -5 -13z"/>
<path d="M2115 1190 c3 -5 8 -10 11 -10 2 0 4 5 4 10 0 6 -5 10 -11 10 -5 0
-7 -4 -4 -10z"/>
<path d="M2277 1185 c-4 -8 -3 -16 1 -19 4 -3 9 4 9 15 2 23 -3 25 -10 4z"/>
<path d="M2497 1193 c-2 -5 -3 -16 -2 -25 2 -10 -3 -18 -11 -18 -17 0 -18 -16
-2 -26 6 -4 8 -3 5 3 -4 6 0 13 8 16 8 4 12 15 10 27 -3 16 0 20 10 16 8 -3
15 -1 15 4 0 12 -27 13 -33 3z"/>
<path d="M2432 1176 c7 -8 15 -12 17 -11 5 6 -10 25 -20 25 -5 0 -4 -6 3 -14z"/>
<path d="M2095 1170 c3 -5 8 -10 11 -10 2 0 4 5 4 10 0 6 -5 10 -11 10 -5 0
-7 -4 -4 -10z"/>
<path d="M2180 1165 c0 -9 -6 -12 -15 -9 -8 4 -15 2 -15 -4 0 -14 33 -8 38 6
2 7 9 9 14 6 7 -4 8 -2 4 4 -10 17 -26 15 -26 -3z"/>
<path d="M2407 1169 c7 -7 15 -10 18 -7 3 3 -2 9 -12 12 -14 6 -15 5 -6 -5z"/>
<path d="M2543 1163 c-3 -7 -10 -10 -16 -6 -6 4 -7 1 -2 -7 6 -10 11 -10 20 3
7 9 14 14 17 11 4 -3 8 -1 12 4 3 5 -2 9 -10 9 -9 0 -18 -6 -21 -14z"/>
<path d="M2375 1161 c-6 -11 13 -26 22 -17 4 3 1 6 -6 6 -7 0 -9 5 -6 10 3 6
4 10 1 10 -3 0 -7 -4 -11 -9z"/>
<path d="M2214 1145 c-4 -8 -11 -12 -17 -8 -6 3 -7 1 -3 -5 10 -16 14 -15 26
8 6 11 8 20 5 20 -3 0 -8 -7 -11 -15z"/>
<path d="M2245 1147 c-15 -12 -16 -15 -4 -22 8 -5 11 -5 7 0 -4 4 0 14 10 21
23 18 11 18 -13 1z"/>
<path d="M2096 1135 c-3 -8 -1 -15 4 -15 6 0 10 7 10 15 0 8 -2 15 -4 15 -2 0
-6 -7 -10 -15z"/>
<path d="M2130 1135 c0 -8 4 -15 10 -15 5 0 7 7 4 15 -4 8 -8 15 -10 15 -2 0
-4 -7 -4 -15z"/>
<path d="M2433 1124 c0 -17 2 -22 7 -13 5 6 6 18 3 26 -8 19 -10 16 -10 -13z"/>
<path d="M2553 1138 c-15 -20 -25 -38 -20 -38 3 0 12 11 21 25 17 26 16 35 -1
13z"/>
<path d="M2272 1135 c4 -4 0 -13 -9 -20 -13 -10 -14 -13 -2 -20 8 -5 11 -5 7
0 -4 4 0 13 9 20 13 10 14 13 2 20 -8 5 -11 5 -7 0z"/>
<path d="M2356 1132 c-3 -4 4 -9 15 -9 23 -2 25 3 4 10 -8 4 -16 3 -19 -1z"/>
<path d="M2172 1125 c4 -4 0 -14 -10 -21 -9 -7 -15 -14 -12 -17 3 -2 13 4 23
13 15 14 16 20 5 26 -7 4 -10 4 -6 -1z"/>
<path d="M2195 1100 c-16 -11 -25 -20 -20 -20 10 0 64 39 55 40 -3 0 -18 -9
-35 -20z"/>
<path d="M2459 1118 c0 -2 -2 -13 -5 -26 -3 -19 -2 -21 10 -10 8 7 10 15 5 16
-5 2 -7 8 -3 13 3 5 3 9 0 9 -3 0 -6 -1 -7 -2z"/>
<path d="M2495 1109 c-5 -8 -4 -10 3 -5 7 4 12 3 12 -3 0 -5 -6 -12 -12 -14
-10 -4 -10 -6 -1 -6 17 -1 27 19 15 31 -6 6 -12 6 -17 -3z"/>
<path d="M2068 1103 c6 -2 18 -2 25 0 6 3 1 5 -13 5 -14 0 -19 -2 -12 -5z"/>
<path d="M2118 1103 c7 -3 16 -2 19 1 4 3 -2 6 -13 5 -11 0 -14 -3 -6 -6z"/>
<path d="M2382 1089 c-10 -16 -10 -20 2 -25 8 -3 21 -2 27 2 9 5 10 2 6 -9 -3
-10 -2 -17 4 -17 6 0 9 8 7 18 -2 12 -11 16 -28 14 -21 -4 -22 -2 -11 12 8 9
12 18 10 21 -3 2 -10 -5 -17 -16z"/>
<path d="M2220 1090 c-12 -7 -10 -9 7 -7 12 0 19 5 17 9 -6 10 -6 10 -24 -2z"/>
<path d="M2544 1088 c-4 -5 -3 -12 0 -15 3 -4 6 -1 6 6 0 7 4 10 9 6 5 -3 12
-2 15 3 3 5 -2 9 -10 9 -8 0 -17 -4 -20 -9z"/>
<path d="M2248 1073 c-9 -2 -19 -11 -22 -19 -4 -11 -1 -11 19 2 14 9 25 18 25
20 0 2 -1 3 -2 3 -2 -1 -10 -3 -20 -6z"/>
<path d="M2470 1070 c0 -6 7 -10 15 -10 8 0 15 2 15 4 0 2 -7 6 -15 10 -8 3
-15 1 -15 -4z"/>
<path d="M2515 1070 c-3 -5 -1 -10 4 -10 6 0 11 5 11 10 0 6 -2 10 -4 10 -3 0
-8 -4 -11 -10z"/>
<path d="M2117 1057 c-3 -8 -2 -20 3 -26 5 -9 8 -4 8 13 0 29 -3 32 -11 13z"/>
<path d="M2153 1055 c-10 -11 -9 -13 6 -12 11 1 17 7 14 14 -6 16 -5 16 -20
-2z"/>
<path d="M2195 1060 c3 -5 8 -10 11 -10 2 0 4 5 4 10 0 6 -5 10 -11 10 -5 0
-7 -4 -4 -10z"/>
<path d="M2548 1053 c-7 -10 -22 -18 -33 -18 -14 0 -20 -6 -19 -22 1 -13 -4
-23 -12 -23 -17 0 -18 -16 -2 -26 6 -4 8 -3 5 3 -4 6 0 13 8 16 8 4 12 15 10
28 -3 17 0 20 15 16 13 -3 24 3 35 19 18 28 13 33 -7 7z"/>
<path d="M2355 1050 c-3 -5 -1 -10 4 -10 6 0 11 5 11 10 0 6 -2 10 -4 10 -3 0
-8 -4 -11 -10z"/>
<path d="M2450 1050 c0 -5 5 -10 11 -10 5 0 7 5 4 10 -3 6 -8 10 -11 10 -2 0
-4 -4 -4 -10z"/>
<path d="M2094 1032 c3 -5 0 -13 -6 -15 -9 -4 -10 -6 -1 -6 17 -1 25 16 12 25
-7 4 -9 3 -5 -4z"/>
<path d="M2190 1030 c0 -5 5 -10 10 -10 6 0 10 5 10 10 0 6 -4 10 -10 10 -5 0
-10 -4 -10 -10z"/>
<path d="M2275 1030 c3 -5 8 -10 11 -10 2 0 4 5 4 10 0 6 -5 10 -11 10 -5 0
-7 -4 -4 -10z"/>
<path d="M2374 1028 c-4 -7 -4 -10 1 -6 4 4 14 1 22 -7 8 -8 19 -15 25 -15 6
0 9 1 7 3 -2 1 -14 10 -26 20 -17 15 -23 16 -29 5z"/>
<path d="M2428 1023 c7 -3 16 -2 19 1 4 3 -2 6 -13 5 -11 0 -14 -3 -6 -6z"/>
<path d="M2156 1012 c-2 -4 0 -14 6 -22 8 -12 9 -12 5 2 -3 9 -1 19 6 22 9 3
9 5 0 5 -6 1 -14 -3 -17 -7z"/>
<path d="M2256 1005 c4 -8 8 -15 10 -15 2 0 4 7 4 15 0 8 -4 15 -10 15 -5 0
-7 -7 -4 -15z"/>
<path d="M2539 996 c-9 -19 -9 -19 4 -4 8 10 16 15 19 12 4 -3 8 -1 12 4 3 5
-2 9 -10 9 -8 0 -20 -10 -25 -21z"/>
<path d="M2097 987 c3 -5 13 -7 23 -4 11 3 21 -1 24 -9 3 -8 10 -14 16 -14 6
0 4 8 -5 17 -17 17 -68 26 -58 10z"/>
<path d="M2370 980 c-6 -11 -8 -20 -6 -20 3 0 10 9 16 20 6 11 8 20 6 20 -3 0
-10 -9 -16 -20z"/>
<path d="M2070 981 c8 -6 11 -11 5 -11 -5 0 -2 -7 8 -14 20 -15 6 -32 -15 -20
-10 5 -10 4 -1 -6 10 -11 15 -11 28 0 15 13 15 15 -2 27 -10 8 -17 17 -15 21
2 3 -2 8 -10 10 -9 2 -8 0 2 -7z"/>
<path d="M2433 965 c0 -14 3 -25 8 -25 4 0 6 10 4 21 -6 32 -12 34 -12 4z"/>
<path d="M2180 975 c0 -8 29 -12 39 -5 9 5 4 8 -13 8 -14 0 -26 -2 -26 -3z"/>
<path d="M2255 970 c-3 -5 -1 -10 4 -10 6 0 11 5 11 10 0 6 -2 10 -4 10 -3 0
-8 -4 -11 -10z"/>
<path d="M2397 969 c7 -7 15 -10 18 -7 3 3 -2 9 -12 12 -14 6 -15 5 -6 -5z"/>
<path d="M2522 967 c10 -8 14 -18 10 -22 -4 -5 -1 -5 6 -1 17 10 15 14 -10 26
-21 10 -21 10 -6 -3z"/>
<path d="M2124 949 c-5 -8 -3 -9 6 -4 10 6 12 4 7 -8 -3 -10 -2 -17 3 -17 13
0 13 27 1 35 -5 3 -13 0 -17 -6z"/>
<path d="M2213 948 c-3 -6 -1 -8 5 -4 5 3 12 2 14 -4 2 -5 9 -6 16 -1 10 6 9
10 -7 14 -12 3 -24 0 -28 -5z"/>
<path d="M2495 949 c-5 -8 -4 -10 3 -5 8 5 12 -1 13 -16 1 -18 2 -19 6 -4 6
23 -12 43 -22 25z"/>
<path d="M2266 935 c-11 -8 -16 -15 -10 -15 5 0 18 7 28 15 11 8 16 15 10 15
-5 0 -18 -7 -28 -15z"/>
<path d="M2180 924 c0 -9 -5 -12 -12 -8 -7 5 -8 3 -3 -6 6 -10 11 -10 20 3 7
9 16 13 20 9 5 -4 5 -1 1 6 -10 17 -26 15 -26 -4z"/>
<path d="M2385 930 c-2 -3 5 -7 16 -7 10 -1 19 2 19 6 0 9 -29 10 -35 1z"/>
<path d="M2460 930 c0 -5 5 -10 10 -10 6 0 10 5 10 10 0 6 -4 10 -10 10 -5 0
-10 -4 -10 -10z"/>
<path d="M2550 928 c0 -4 4 -8 9 -8 6 0 12 4 15 8 3 5 -1 9 -9 9 -8 0 -15 -4
-15 -9z"/>
<path d="M2110 910 c0 -6 7 -10 15 -10 8 0 15 2 15 4 0 2 -7 6 -15 10 -8 3
-15 1 -15 -4z"/>
<path d="M2214 905 c-4 -8 -11 -12 -17 -8 -6 3 -7 1 -3 -5 10 -16 14 -15 26 8
6 11 8 20 5 20 -3 0 -8 -7 -11 -15z"/>
<path d="M2430 910 c0 -5 5 -10 10 -10 6 0 10 5 10 10 0 6 -4 10 -10 10 -5 0
-10 -4 -10 -10z"/>
<path d="M2535 910 c6 -9 -8 -14 -28 -11 -5 1 -6 -3 -2 -9 4 -7 12 -7 26 0 17
9 19 30 3 30 -3 0 -2 -4 1 -10z"/>
<path d="M2060 901 c0 -6 4 -13 10 -16 6 -3 7 1 4 9 -7 18 -14 21 -14 7z"/>
<path d="M2091 894 c0 -11 3 -14 6 -6 3 7 2 16 -1 19 -3 4 -6 -2 -5 -13z"/>
<path d="M2235 900 c-3 -5 -1 -10 4 -10 6 0 11 5 11 10 0 6 -2 10 -4 10 -3 0
-8 -4 -11 -10z"/>
<path d="M2279 903 c0 -5 -2 -16 -4 -25 -2 -10 0 -18 5 -18 4 0 8 11 8 25 0
22 -7 36 -9 18z"/>
<path d="M2350 901 c0 -6 4 -13 10 -16 6 -3 7 1 4 9 -7 18 -14 21 -14 7z"/>
<path d="M2390 900 c0 -6 7 -10 15 -10 8 0 15 2 15 4 0 2 -7 6 -15 10 -8 3
-15 1 -15 -4z"/>
<path d="M2477 893 c-12 -12 -7 -21 16 -26 20 -5 20 -5 5 7 -10 7 -15 16 -11
19 3 4 4 7 1 7 -2 0 -8 -3 -11 -7z"/>
<path d="M2175 880 c6 -10 4 -12 -11 -6 -15 6 -17 5 -6 -5 9 -9 15 -10 23 -2
8 8 7 13 -2 18 -8 6 -10 4 -4 -5z"/>
<path d="M2110 870 c0 -5 7 -7 15 -4 8 4 15 8 15 10 0 2 -7 4 -15 4 -8 0 -15
-4 -15 -10z"/>
<path d="M2204 866 c-10 -8 -17 -16 -14 -19 3 -2 14 4 24 14 23 22 18 25 -10
5z"/>
<path d="M2375 871 c-6 -11 13 -26 22 -17 4 3 1 6 -6 6 -7 0 -9 5 -6 10 3 6 4
10 1 10 -3 0 -7 -4 -11 -9z"/>
<path d="M2534 872 c3 -5 0 -13 -6 -15 -9 -4 -10 -6 -1 -6 17 -1 25 16 12 25
-7 4 -9 3 -5 -4z"/>
<path d="M2092 850 c0 -14 2 -19 5 -12 2 6 2 18 0 25 -3 6 -5 1 -5 -13z"/>
<path d="M2130 850 c0 -5 5 -10 10 -10 6 0 10 5 10 10 0 6 -4 10 -10 10 -5 0
-10 -4 -10 -10z"/>
<path d="M2230 850 c0 -5 7 -7 15 -4 8 4 15 8 15 10 0 2 -7 4 -15 4 -8 0 -15
-4 -15 -10z"/>
<path d="M2560 850 c-9 -6 -10 -10 -3 -10 6 0 15 5 18 10 8 12 4 12 -15 0z"/>
<path d="M2495 840 c-7 -11 22 -26 32 -16 3 3 12 -2 20 -12 13 -15 13 -15 4 5
-8 15 -17 20 -32 16 -15 -4 -20 -3 -15 5 4 7 5 12 2 12 -3 0 -8 -5 -11 -10z"/>
<path d="M2110 830 c0 -5 5 -10 11 -10 5 0 7 5 4 10 -3 6 -8 10 -11 10 -2 0
-4 -4 -4 -10z"/>
<path d="M2150 830 c-11 -7 -11 -10 -2 -10 7 0 10 -5 6 -12 -4 -7 -3 -8 5 -4
6 4 8 12 5 18 -5 8 -1 9 10 5 10 -4 15 -3 11 3 -8 12 -16 12 -35 0z"/>
<path d="M2200 821 c-7 -14 -7 -22 0 -26 6 -4 10 -3 9 2 -4 21 2 34 13 27 7
-4 8 -3 4 4 -10 16 -14 15 -26 -7z"/>
<path d="M2370 830 c-9 -6 -10 -10 -3 -10 6 0 15 5 18 10 8 12 4 12 -15 0z"/>
<path d="M2428 833 c6 -2 18 -2 25 0 6 3 1 5 -13 5 -14 0 -19 -2 -12 -5z"/>
<path d="M2064 819 c1 -6 6 -10 11 -10 6 0 13 -6 17 -14 5 -7 17 -11 27 -8 16
4 19 1 15 -19 -4 -20 -3 -21 5 -3 11 26 4 38 -19 32 -11 -3 -21 2 -24 10 -3 8
-10 12 -15 9 -5 -4 -12 -1 -14 4 -4 7 -5 6 -3 -1z"/>
<path d="M2229 809 c-10 -6 -6 -8 11 -5 14 2 32 -1 40 -7 12 -9 13 -9 3 3 -16
17 -36 21 -54 9z"/>
<path d="M2416 805 c4 -8 8 -15 10 -15 2 0 4 7 4 15 0 8 -4 15 -10 15 -5 0 -7
-7 -4 -15z"/>
<path d="M2450 805 c0 -8 2 -15 4 -15 2 0 6 7 10 15 3 8 1 15 -4 15 -6 0 -10
-7 -10 -15z"/>
<path d="M2164 789 c-5 -8 -3 -9 6 -4 10 6 12 4 7 -8 -3 -10 -2 -17 3 -17 13
0 13 27 1 35 -5 3 -13 0 -17 -6z"/>
<path d="M2379 798 c-6 -19 -4 -50 4 -55 6 -3 7 -1 3 5 -4 7 -2 12 5 12 8 0 7
5 -2 17 -12 15 -12 16 4 10 9 -3 17 -2 17 3 0 8 -28 15 -31 8z"/>
<path d="M2470 790 c0 -5 7 -7 15 -4 8 4 15 8 15 10 0 2 -7 4 -15 4 -8 0 -15
-4 -15 -10z"/>
<path d="M2525 790 c-5 -8 -4 -11 2 -7 6 4 14 0 17 -9 9 -22 8 -26 -6 -18 -7
4 -8 3 -4 -5 7 -11 26 -6 26 8 0 4 -6 15 -13 26 -11 14 -16 15 -22 5z"/>
<path d="M2270 770 c-8 -5 -10 -10 -5 -10 6 0 17 5 25 10 8 5 11 10 5 10 -5 0
-17 -5 -25 -10z"/>
<path d="M2495 770 c3 -5 11 -10 16 -10 6 0 7 5 4 10 -3 6 -11 10 -16 10 -6 0
-7 -4 -4 -10z"/>
<path d="M2075 749 c-18 -8 -17 -9 3 -5 20 4 23 1 19 -14 -3 -13 3 -25 20 -35
14 -9 27 -15 29 -12 2 2 -7 9 -20 16 -15 9 -22 19 -19 31 6 23 -7 30 -32 19z"/>
<path d="M2150 750 c0 -5 5 -10 11 -10 5 0 7 5 4 10 -3 6 -8 10 -11 10 -2 0
-4 -4 -4 -10z"/>
<path d="M2190 750 c-13 -8 -12 -10 3 -10 9 0 17 5 17 10 0 12 -1 12 -20 0z"/>
<path d="M2353 741 c0 -11 5 -18 9 -15 4 3 5 11 1 19 -7 21 -12 19 -10 -4z"/>
<path d="M2422 747 c10 -8 14 -18 10 -22 -4 -5 -1 -5 6 -1 17 10 15 14 -10 26
-21 10 -21 10 -6 -3z"/>
<path d="M2459 745 c22 -43 30 -51 28 -28 0 12 -3 20 -6 18 -2 -3 -10 3 -18
13 -13 16 -13 15 -4 -3z"/>
<path d="M2130 730 c0 -5 5 -10 11 -10 5 0 7 5 4 10 -3 6 -8 10 -11 10 -2 0
-4 -4 -4 -10z"/>
<path d="M2221 724 c0 -11 3 -14 6 -6 3 7 2 16 -1 19 -3 4 -6 -2 -5 -13z"/>
<path d="M2397 733 c-12 -11 -8 -23 9 -23 9 0 12 -5 8 -12 -5 -7 -3 -8 6 -3
10 6 10 11 -3 20 -9 7 -14 15 -10 18 3 4 4 7 1 7 -2 0 -8 -3 -11 -7z"/>
<path d="M2511 730 c-9 -5 -4 -7 13 -7 29 0 32 2 13 10 -8 3 -20 2 -26 -3z"/>
<path d="M2180 716 c0 -2 7 -6 15 -10 8 -3 15 -1 15 4 0 6 -7 10 -15 10 -8 0
-15 -2 -15 -4z"/>
<path d="M2444 709 c-4 -7 -3 -9 4 -5 5 3 13 0 15 -6 4 -9 6 -10 6 -1 1 17
-16 25 -25 12z"/>
<path d="M2174 685 c3 -9 0 -15 -8 -15 -8 0 -17 -7 -20 -15 -5 -14 -4 -14 16
-1 23 16 33 46 16 46 -6 0 -8 -7 -4 -15z"/>
<path d="M2430 670 c0 -5 5 -10 10 -10 6 0 10 5 10 10 0 6 -4 10 -10 10 -5 0
-10 -4 -10 -10z"/>
<path d="M2510 670 c0 -5 5 -10 10 -10 6 0 10 5 10 10 0 6 -4 10 -10 10 -5 0
-10 -4 -10 -10z"/>
<path d="M2077 657 c-3 -8 1 -14 8 -14 7 0 11 6 8 14 -3 7 -6 13 -8 13 -2 0
-5 -6 -8 -13z"/>
<path d="M2115 660 c3 -5 8 -10 11 -10 2 0 4 5 4 10 0 6 -5 10 -11 10 -5 0 -7
-4 -4 -10z"/>
<path d="M2466 652 c5 -4 12 -11 15 -15 3 -5 9 -2 12 5 3 9 -3 14 -15 15 -11
1 -16 -1 -12 -5z"/>
<path d="M2547 644 c3 -7 9 -14 14 -14 14 0 10 17 -5 23 -10 4 -13 1 -9 -9z"/>
<path d="M2515 640 c-3 -5 -1 -10 4 -10 6 0 11 5 11 10 0 6 -2 10 -4 10 -3 0
-8 -4 -11 -10z"/>
<path d="M2110 630 c0 -5 5 -10 10 -10 6 0 10 5 10 10 0 6 -4 10 -10 10 -5 0
-10 -4 -10 -10z"/>
<path d="M2070 620 c8 -5 20 -10 25 -10 6 0 3 5 -5 10 -8 5 -19 10 -25 10 -5
0 -3 -5 5 -10z"/>
<path d="M2191 614 c0 -11 3 -14 6 -6 3 7 2 16 -1 19 -3 4 -6 -2 -5 -13z"/>
<path d="M2137 605 c-4 -8 -1 -17 5 -21 7 -4 8 -3 4 4 -4 7 -2 12 3 12 6 0 11
5 11 10 0 15 -17 12 -23 -5z"/>
<path d="M2490 612 c0 -5 7 -9 15 -9 8 0 12 4 9 9 -3 4 -9 8 -15 8 -5 0 -9 -4
-9 -8z"/>
<path d="M2530 610 c0 -5 5 -10 10 -10 6 0 10 5 10 10 0 6 -4 10 -10 10 -5 0
-10 -4 -10 -10z"/>
<path d="M2113 574 c0 -17 2 -22 7 -13 5 6 6 18 3 26 -8 19 -10 16 -10 -13z"/>
<path d="M2467 570 c-15 -14 -16 -20 -5 -26 7 -4 10 -4 6 1 -4 4 0 14 10 21 9
7 15 14 12 17 -3 2 -13 -4 -23 -13z"/>
<path d="M2519 583 c0 -5 -2 -16 -4 -25 -2 -10 0 -18 5 -18 4 0 8 11 8 25 0
22 -7 36 -9 18z"/>
<path d="M2155 570 c-3 -6 -1 -18 5 -27 9 -16 10 -15 5 4 -5 18 -3 22 9 17 9
-3 16 -4 16 -1 0 10 -30 16 -35 7z"/>
<path d="M2540 566 c0 -2 7 -7 16 -10 8 -3 12 -2 9 4 -6 10 -25 14 -25 6z"/>
<path d="M2242 542 c-7 -5 -10 -16 -6 -25 3 -9 10 -14 15 -11 5 3 12 -1 15 -9
2 -7 11 -14 19 -15 8 -1 22 -3 30 -4 8 -1 15 -5 15 -10 0 -5 5 -6 11 -3 16 11
5 28 -22 32 -37 5 -70 25 -65 40 6 15 5 15 -12 5z"/>
<path d="M2075 530 c3 -5 8 -10 11 -10 2 0 4 5 4 10 0 6 -5 10 -11 10 -5 0 -7
-4 -4 -10z"/>
<path d="M2110 522 c-8 -9 -13 -25 -12 -35 2 -11 -1 -17 -6 -13 -16 9 -26 -14
-13 -27 9 -9 11 -8 5 6 -4 12 -2 17 7 15 8 -2 14 5 14 17 0 11 7 25 15 32 8 6
13 14 10 16 -3 3 -12 -2 -20 -11z"/>
<path d="M2355 530 c-3 -5 -1 -10 4 -10 6 0 11 5 11 10 0 6 -2 10 -4 10 -3 0
-8 -4 -11 -10z"/>
<path d="M2481 536 c2 -2 15 -9 29 -15 24 -11 24 -11 6 3 -16 13 -49 24 -35
12z"/>
<path d="M2547 522 c3 -7 9 -10 12 -5 3 4 10 11 15 15 4 4 -1 6 -12 5 -12 -1
-18 -6 -15 -15z"/>
<path d="M2460 521 c0 -7 -5 -9 -12 -5 -7 5 -8 3 -3 -5 5 -9 10 -10 18 -2 6 6
8 14 4 18 -4 3 -7 1 -7 -6z"/>
<path d="M2471 496 c-9 -15 -19 -22 -31 -19 -10 3 -20 1 -23 -4 -3 -5 6 -8 19
-8 22 1 62 40 52 51 -3 2 -10 -7 -17 -20z"/>
<path d="M2130 489 c0 -5 5 -7 10 -4 6 3 10 8 10 11 0 2 -4 4 -10 4 -5 0 -10
-5 -10 -11z"/>
<path d="M2500 489 c0 -5 5 -7 10 -4 6 3 10 8 10 11 0 2 -4 4 -10 4 -5 0 -10
-5 -10 -11z"/>
<path d="M2530 490 c0 -5 5 -10 10 -10 6 0 10 5 10 10 0 6 -4 10 -10 10 -5 0
-10 -4 -10 -10z"/>
<path d="M2250 481 c0 -6 4 -13 10 -16 6 -3 7 1 4 9 -7 18 -14 21 -14 7z"/>
<path d="M2150 469 c0 -5 5 -7 10 -4 6 3 10 8 10 11 0 2 -4 4 -10 4 -5 0 -10
-5 -10 -11z"/>
<path d="M2180 476 c0 -2 7 -6 15 -10 8 -3 15 -1 15 4 0 6 -7 10 -15 10 -8 0
-15 -2 -15 -4z"/>
<path d="M2476 465 c-3 -9 -6 -22 -5 -28 0 -7 5 -1 10 12 5 13 8 26 5 28 -2 2
-6 -3 -10 -12z"/>
<path d="M2134 453 c2 -12 -1 -24 -8 -27 -8 -3 -8 -5 1 -5 17 -1 22 11 12 34
-9 19 -9 19 -5 -2z"/>
<path d="M2377 459 c7 -7 15 -10 18 -7 3 3 -2 9 -12 12 -14 6 -15 5 -6 -5z"/>
<path d="M2546 453 c-6 -14 -5 -15 5 -6 7 7 10 15 7 18 -3 3 -9 -2 -12 -12z"/>
<path d="M2164 448 c-5 -7 -3 -8 6 -3 10 6 12 4 7 -9 -4 -10 -3 -15 3 -11 13
8 13 35 1 35 -6 0 -13 -5 -17 -12z"/>
<path d="M2240 450 c0 -5 5 -10 11 -10 5 0 7 5 4 10 -3 6 -8 10 -11 10 -2 0
-4 -4 -4 -10z"/>
<path d="M2306 451 c-3 -5 1 -11 9 -14 9 -4 12 -1 8 9 -6 16 -10 17 -17 5z"/>
<path d="M2351 444 c0 -11 3 -14 6 -6 3 7 2 16 -1 19 -3 4 -6 -2 -5 -13z"/>
<path d="M2424 449 c-4 -7 -3 -9 4 -5 5 3 13 0 15 -6 4 -9 6 -10 6 -1 1 17
-16 25 -25 12z"/>
<path d="M2495 450 c-3 -6 1 -7 9 -4 18 7 21 14 7 14 -6 0 -13 -4 -16 -10z"/>
<path d="M2095 430 c-3 -5 -1 -10 4 -10 6 0 11 5 11 10 0 6 -2 10 -4 10 -3 0
-8 -4 -11 -10z"/>
<path d="M2270 430 c0 -5 5 -10 10 -10 6 0 10 5 10 10 0 6 -4 10 -10 10 -5 0
-10 -4 -10 -10z"/>
<path d="M2390 430 c0 -5 5 -10 10 -10 6 0 10 5 10 10 0 6 -4 10 -10 10 -5 0
-10 -4 -10 -10z"/>
<path d="M2510 430 c0 -5 5 -10 10 -10 6 0 10 5 10 10 0 6 -4 10 -10 10 -5 0
-10 -4 -10 -10z"/>
<path d="M2196 421 c-3 -4 1 -16 8 -26 10 -14 15 -15 21 -5 5 9 4 11 -3 6 -11
-6 -16 6 -13 27 1 10 -7 9 -13 -2z"/>
<path d="M2140 409 c-13 -9 -13 -10 0 -6 8 2 20 -3 26 -11 9 -13 12 -13 19 -1
5 8 5 11 0 7 -4 -4 -13 -1 -19 7 -8 11 -15 12 -26 4z"/>
<path d="M2232 406 c7 -8 15 -12 17 -11 5 6 -10 25 -20 25 -5 0 -4 -6 3 -14z"/>
<path d="M2330 409 c0 -4 10 -6 21 -4 32 6 34 13 4 13 -14 0 -25 -4 -25 -9z"/>
<path d="M2450 410 c0 -5 5 -10 10 -10 6 0 10 5 10 10 0 6 -4 10 -10 10 -5 0
-10 -4 -10 -10z"/>
<path d="M2480 416 c0 -2 7 -7 16 -10 8 -3 12 -2 9 4 -6 10 -25 14 -25 6z"/>
<path d="M2316 387 c5 -14 2 -16 -12 -11 -16 5 -16 4 -4 -5 20 -14 39 4 21 22
-10 10 -11 9 -5 -6z"/>
<path d="M2390 390 c0 -5 5 -10 10 -10 6 0 10 5 10 10 0 6 -4 10 -10 10 -5 0
-10 -4 -10 -10z"/>
<path d="M2475 389 c-4 -6 -5 -12 -2 -15 2 -3 7 2 10 11 7 17 1 20 -8 4z"/>
<path d="M2190 371 c0 -10 19 -25 25 -20 1 2 -3 10 -11 17 -8 7 -14 8 -14 3z"/>
<path d="M2230 368 c0 -11 12 -10 30 2 12 7 10 9 -8 7 -12 0 -22 -5 -22 -9z"/>
<path d="M2372 366 c7 -8 15 -12 17 -11 5 6 -10 25 -20 25 -5 0 -4 -6 3 -14z"/>
<path d="M855 2443 c-152 -30 -254 -71 -375 -151 -250 -166 -418 -443 -469
-776 -9 -65 -7 -276 4 -341 18 -107 72 -270 120 -360 255 -481 798 -676 1255
-451 246 121 437 345 529 621 238 715 -249 1475 -939 1463 -58 -1 -114 -3
-125 -5z m60 -468 c-28 -20 -81 -58 -120 -85 -162 -116 -255 -179 -255 -173 0
19 70 110 122 158 82 76 196 131 278 134 21 1 18 -4 -25 -34z m211 12 c143
-51 262 -166 326 -312 51 -117 62 -171 62 -310 1 -152 -14 -219 -74 -341 -172
-352 -575 -416 -825 -131 -52 60 -118 187 -141 272 -23 84 -27 263 -8 350 30
144 19 131 292 323 238 167 249 173 287 168 22 -2 58 -11 81 -19z m-885 -144
c13 -16 12 -17 -3 -4 -10 7 -18 15 -18 17 0 8 8 3 21 -13z"/>
<path d="M2875 2431 c-52 -24 -93 -66 -118 -120 -19 -43 -19 -71 -19 -936 0
-873 0 -893 20 -936 26 -56 64 -96 116 -120 61 -28 253 -27 316 2 56 25 86 53
113 104 l22 40 1 899 c2 975 4 928 -53 1004 -13 18 -45 43 -71 56 -41 21 -61
24 -167 24 -96 1 -128 -3 -160 -17z m145 -122 c-19 -6 -45 -21 -57 -35 -13
-14 -23 -21 -23 -16 0 11 40 48 60 55 8 3 24 5 35 5 11 0 4 -4 -15 -9z m65 -7
c-3 -3 -11 0 -18 7 -9 10 -8 11 6 5 10 -3 15 -9 12 -12z m58 -65 c4 -11 3 -16
-3 -12 -6 3 -10 12 -10 19 0 8 -7 19 -15 26 -8 7 -15 17 -15 23 0 12 34 -32
43 -56z m-83 32 c0 -5 3 -8 8 -8 23 4 32 -4 40 -33 11 -41 -4 -94 -23 -78 -6
5 -14 7 -17 4 -3 -2 -8 2 -11 11 -6 15 3 19 33 16 13 -2 13 -1 0 8 -8 5 -18 7
-23 4 -5 -3 -8 0 -5 8 3 8 -1 20 -9 27 -7 8 -11 17 -9 21 3 4 -5 8 -17 8 -20
2 -20 1 -4 -8 17 -10 15 -29 -4 -29 -6 0 -8 4 -5 9 4 5 -2 8 -11 6 -31 -4 -37
7 -13 25 24 18 70 24 70 9z m-126 -58 c-4 -17 0 -41 10 -60 9 -17 14 -31 12
-31 -3 0 -12 13 -21 30 -15 30 -17 90 -3 90 4 0 5 -13 2 -29z m83 -18 c7 -18
16 -33 19 -33 3 0 2 6 -1 13 -4 6 1 3 10 -8 9 -11 21 -19 26 -17 5 1 9 -2 9
-7 0 -17 -50 -21 -79 -6 -36 18 -43 36 -22 53 15 12 14 13 -1 8 -12 -3 -16 1
-15 14 2 31 38 20 54 -17z m126 -30 c-9 -27 -55 -73 -72 -73 -9 0 -1 9 17 20
18 11 37 31 42 45 11 28 23 35 13 8z m-103 -68 c5 3 10 -1 10 -9 0 -9 -6 -16
-12 -16 -9 0 -10 -3 -2 -8 15 -9 15 -143 0 -161 -8 -11 -8 -13 2 -7 7 4 12 1
12 -9 0 -9 -6 -15 -12 -12 -9 2 -13 33 -13 107 l0 103 -27 9 c-16 6 -28 13
-28 18 0 5 13 2 30 -6 16 -9 34 -13 40 -9z m7 -552 c0 -224 -3 -320 -11 -325
-8 -6 -8 -8 0 -8 9 0 12 -75 12 -269 0 -149 3 -275 7 -280 4 -7 -5 -11 -22
-11 -20 0 -24 3 -14 9 9 6 12 21 9 45 -2 20 -2 36 2 36 3 0 5 45 5 100 0 55
-3 100 -7 100 -5 0 -8 5 -8 11 0 5 4 8 9 5 5 -4 7 2 5 11 -10 40 -9 631 1 625
6 -3 4 2 -4 11 -11 14 -11 17 0 17 10 0 10 3 1 12 -16 16 -15 31 1 22 8 -5 8
-2 -2 9 -10 13 -10 17 -1 17 9 0 9 4 3 13 -13 15 -13 47 0 47 6 0 6 5 0 13
-13 15 -13 47 0 47 5 0 4 7 -3 15 -10 12 -10 15 1 16 10 0 11 2 2 6 -17 6 -17
23 0 23 11 0 14 -61 14 -317z m59 -910 c-6 -6 -36 9 -36 18 0 5 9 4 20 -3 10
-7 18 -14 16 -15z m-119 2 c-10 -7 -25 -22 -33 -32 -14 -17 -14 -16 -4 4 5 12
18 27 28 32 25 15 30 13 9 -4z m83 -26 c0 -5 4 -8 9 -4 16 9 40 -35 35 -67 -9
-71 -91 -89 -133 -30 -18 26 -18 29 -3 40 9 7 11 10 3 6 -19 -9 -4 37 17 54
19 15 72 16 72 1z m64 -5 c5 -14 4 -15 -9 -4 -17 14 -19 20 -6 20 5 0 12 -7
15 -16z m-192 -54 c-2 -16 -6 -30 -8 -30 -2 0 -4 14 -4 30 0 17 4 30 8 30 5 0
7 -13 4 -30z m208 15 c0 -8 -2 -15 -4 -15 -2 0 -6 7 -10 15 -3 8 -1 15 4 15 6
0 10 -7 10 -15z m-10 -62 c-11 -17 -11 -17 -6 0 3 10 6 24 7 30 0 9 2 9 5 0 3
-7 0 -20 -6 -30z m-170 -32 c0 -5 17 -16 38 -24 20 -9 30 -16 22 -16 -16 -1
-80 35 -80 44 0 3 5 5 10 5 6 0 10 -4 10 -9z m160 6 c0 -2 -10 -12 -21 -23
-22 -19 -22 -19 -8 4 12 19 29 30 29 19z m-55 -37 c-3 -5 -11 -10 -16 -10 -6
0 -7 5 -4 10 3 6 11 10 16 10 6 0 7 -4 4 -10z"/>
<path d="M3060 2236 c0 -2 7 -6 15 -10 8 -3 15 -1 15 4 0 6 -7 10 -15 10 -8 0
-15 -2 -15 -4z"/>
<path d="M2996 2183 c-6 -14 -5 -15 5 -6 7 7 10 15 7 18 -3 3 -9 -2 -12 -12z"/>
<path d="M2987 2154 c7 -3 15 -5 19 -4 4 1 11 -4 16 -12 8 -11 9 -10 6 1 -2 8
-15 15 -29 17 -13 1 -18 0 -12 -2z"/>
<path d="M3013 600 c2 -8 10 -14 16 -12 20 4 11 -17 -14 -34 -14 -9 -25 -21
-25 -28 0 -6 5 -4 10 4 9 13 12 12 26 -5 13 -17 16 -18 24 -5 8 12 12 13 19 2
7 -11 9 -10 14 3 5 11 3 14 -5 9 -8 -5 -9 -2 -5 10 4 9 3 15 -2 12 -5 -3 -12
1 -15 10 -9 22 -8 26 6 18 6 -4 8 -3 5 4 -4 5 -15 9 -25 8 -9 -2 -21 2 -25 8
-6 7 -7 6 -4 -4z"/>
<path d="M2990 593 c0 -6 8 -17 18 -24 16 -13 16 -13 2 6 -8 11 -16 22 -17 24
-2 2 -3 0 -3 -6z"/>
<path d="M3080 584 c0 -6 7 -19 16 -30 14 -18 14 -18 3 6 -14 31 -19 36 -19
24z"/>
<path d="M3050 490 c0 -5 5 -10 10 -10 6 0 10 5 10 10 0 6 -4 10 -10 10 -5 0
-10 -4 -10 -10z"/>
</g>
</svg>
